<svg width="66" height="70" viewBox="0 0 66 70" fill="none" xmlns="http://www.w3.org/2000/svg">
<g clip-path="url(#clip0_138_2113)">
<path d="M18.3972 22.8964C23.6561 22.8964 27.9181 27.1701 27.9181 32.4402C27.9181 37.7102 23.6561 41.9873 18.3972 41.9873C13.1382 41.9873 8.87964 37.7136 8.87964 32.4402C8.87964 27.1667 13.1416 22.8964 18.3972 22.8964Z" stroke="#282828" stroke-width="1.1" stroke-miterlimit="22.93"/>
<path d="M26.1935 41.9946C31.7386 43.9424 35.5334 48.2175 35.5334 54.939V68.7146H1.26558V54.939C1.1795 48.2139 5.01732 43.9352 10.5983 41.9874" stroke="#282828" stroke-width="1.1" stroke-miterlimit="22.93"/>
<path d="M8.87964 54.7145V68.7145" stroke="#282828" stroke-width="1.1" stroke-miterlimit="22.93"/>
<path d="M27.918 54.7145V68.7145" stroke="#282828" stroke-width="1.1" stroke-miterlimit="22.93"/>
<path d="M46.9547 1.26001C37.141 1.26001 29.1873 9.30891 29.1873 19.2402C29.1873 24.8907 31.7611 29.9293 35.7872 33.2243V40.7146L41.9933 36.5086C43.5686 36.9712 45.2353 37.2203 46.9582 37.2203C56.772 37.2203 64.7257 29.1714 64.7257 19.2402C64.7257 9.30891 56.7685 1.26001 46.9547 1.26001Z" stroke="#282828" stroke-width="1.1" stroke-miterlimit="22.93"/>
<path d="M46.9566 29.015V30.5327M41.8796 18.0568C41.8796 15.1066 44.1529 12.7145 46.9566 12.7145C49.7602 12.7145 52.0335 15.1066 52.0335 18.0568C52.0335 20.2001 50.8377 22.0448 49.1083 22.8979C47.7639 23.559 46.9566 24.8955 46.9566 26.4594V27.2698" stroke="#282828" stroke-width="1.1" stroke-miterlimit="22.93"/>
</g>
<defs>
<clipPath id="clip0_138_2113">
<rect width="66" height="70" fill="white"/>
</clipPath>
</defs>
</svg>
