<svg width="69" height="70" viewBox="0 0 69 70" fill="none" xmlns="http://www.w3.org/2000/svg">
<g clip-path="url(#clip0_138_2127)">
<path d="M45.8111 42.1898C55.5096 53.9324 60.4415 64.3659 57.2087 67.5985C53.1042 71.7028 37.3999 62.6558 22.1295 47.3863C6.85538 32.1168 -2.19211 16.4133 1.91236 12.309C5.14518 9.0764 15.5792 14.0044 27.3226 23.706" stroke="#282828" stroke-width="1.1" stroke-miterlimit="22.93"/>
<path d="M28.4076 53.3035L57.4589 24.2503C61.2691 20.4402 49.0697 8.24154 45.2594 12.0516L16.2082 41.1048M13.3836 43.9293L3.86534 53.4506L0.93042 68.5841L16.0647 65.6493L25.583 56.1316" stroke="#282828" stroke-width="1.1" stroke-miterlimit="22.93"/>
<path d="M17.2896 48.1585L8.93726 56.5104M40.5961 24.8534L20.1142 45.3341" stroke="#282828" stroke-width="1.1" stroke-miterlimit="22.93"/>
<path d="M21.3536 52.2224L13.0012 60.5743M44.6601 28.9172L24.1782 49.398" stroke="#282828" stroke-width="1.1" stroke-miterlimit="22.93"/>
<path d="M15.9176 65.6788C14.9614 63.156 13.3432 60.6257 11.1144 58.3971C8.88929 56.1721 6.35894 54.554 3.83594 53.5941" stroke="#282828" stroke-width="1.1" stroke-miterlimit="22.93"/>
<path d="M7.55066 67.3006C6.90704 66.2378 6.12366 65.2301 5.2042 64.3107C4.28474 63.3913 3.28069 62.6079 2.21411 61.9644" stroke="#282828" stroke-width="1.1" stroke-miterlimit="22.93"/>
<path d="M47.5619 34.0365C46.6057 31.5136 44.9874 28.9834 42.7587 26.7548C40.5336 24.5298 38.0032 22.9116 35.4802 21.9518" stroke="#282828" stroke-width="1.1" stroke-miterlimit="22.93"/>
<path d="M51.6957 29.8991C50.7395 27.3763 49.1213 24.8461 46.8925 22.6174C44.6674 20.3925 42.137 18.7743 39.6104 17.8145" stroke="#282828" stroke-width="1.1" stroke-miterlimit="22.93"/>
<path d="M30.7725 0V10.8086" stroke="#282828" stroke-width="1.1" stroke-miterlimit="22.93"/>
<path d="M36.1791 5.40613H25.3699" stroke="#282828" stroke-width="1.1" stroke-miterlimit="22.93"/>
<path d="M63.5935 36.8793V47.6878" stroke="#282828" stroke-width="1.1" stroke-miterlimit="22.93"/>
<path d="M69.0001 42.2854H58.1909" stroke="#282828" stroke-width="1.1" stroke-miterlimit="22.93"/>
<path d="M27.5618 63.1853V69.9999" stroke="#282828" stroke-width="1.1" stroke-miterlimit="22.93"/>
<path d="M30.971 66.5945H24.156" stroke="#282828" stroke-width="1.1" stroke-miterlimit="22.93"/>
</g>
<defs>
<clipPath id="clip0_138_2127">
<rect width="69" height="70" fill="white"/>
</clipPath>
</defs>
</svg>
