<svg width="70" height="78" viewBox="0 0 70 78" fill="none" xmlns="http://www.w3.org/2000/svg">
<g clip-path="url(#clip0_138_2101)">
<path d="M18.9012 23.248C19.405 23.4136 19.9257 23.4818 20.4488 23.4843C21.2868 24.5656 22.1248 25.6493 22.9628 26.7306C23.7912 27.8022 24.6485 28.8518 25.2831 30.0549C25.8014 31.0412 26.2471 32.0592 26.8525 32.9895C25.8232 32.9895 24.7914 32.9871 23.7621 32.9846C21.9868 32.9822 20.2115 32.9798 18.4362 32.9749C18.1867 32.9749 17.9615 33.1527 17.8912 33.3913C17.247 35.6416 16.8546 37.9503 16.4647 40.2542C16.0844 42.5045 15.755 44.7767 16.0287 47.0611C16.5301 51.2548 18.5597 55.0247 20.6281 58.6291C21.2166 59.6519 21.8148 60.6699 22.3864 61.7025C22.9968 62.8008 23.4812 63.9041 23.7112 65.1461C24.0334 66.8704 24.1302 68.653 24.2102 70.4016C24.2949 72.2111 24.3022 74.0206 24.232 75.8301C24.2199 76.1662 24.5032 76.3586 24.7963 76.3975C27.722 76.7847 30.6454 77.2036 33.576 77.547C36.4944 77.8904 39.4299 78.0438 42.3677 77.9878C44.0074 77.9562 45.6471 77.8612 47.2795 77.7029C47.5532 77.6761 47.885 77.4618 47.8438 77.1354C47.7397 76.3196 47.7591 75.4964 47.7784 74.6781C47.7978 73.8404 47.8317 73.005 47.8777 72.1673C47.9746 70.4796 48.1272 68.7943 48.3379 67.1163C48.4348 66.337 48.5244 65.5479 48.7133 64.7857C50.9561 64.3205 53.1988 63.5802 54.9208 62.002C55.7637 61.23 56.3958 60.2827 56.8076 59.216C57.2217 58.1371 57.3767 56.9706 57.4349 55.8211C57.4978 54.5547 57.4712 53.2688 57.384 52.0024C58.2874 51.452 59.1593 50.8408 59.9368 50.1199C60.7966 49.3235 61.6685 48.364 61.7993 47.1487C61.8283 46.669 61.7145 46.1989 61.5837 45.7411C61.4553 45.2906 61.327 44.84 61.1938 44.3919C60.9225 43.4786 60.6391 42.5702 60.3412 41.6667C59.7503 39.8719 59.1084 38.0965 58.4158 36.3381C58.0161 35.3226 57.5971 34.3143 57.166 33.311C57.0909 33.1332 56.8584 33.0309 56.6792 33.0309C55.0662 33.0309 53.4531 33.026 51.8425 33.0236C54.0005 29.2122 56.173 25.4082 58.3625 21.6139C59.0334 20.4522 59.7043 19.293 60.3751 18.1337C60.4526 17.9998 60.4672 17.8707 60.443 17.7538C60.426 17.6028 60.3461 17.4567 60.1717 17.3593C58.6991 16.5264 57.2266 15.6959 55.754 14.863C54.2766 14.0277 52.8186 13.1607 51.2491 12.508C51.0094 12.4082 50.7405 12.5787 50.6121 12.7686C49.2922 14.7121 47.9407 16.636 46.6571 18.6038C45.4001 20.5302 44.3513 22.5466 43.3874 24.6362C43.1718 25.1013 42.9587 25.5689 42.7456 26.0341C42.6487 24.8286 42.5494 23.6206 42.484 22.4127C42.3798 20.4912 42.0844 18.5429 42.2491 16.6189C42.2563 16.5435 42.2418 16.4704 42.2127 16.4046C42.3726 15.7739 42.53 15.1382 42.7553 14.527C43.0047 13.8451 43.3462 13.2021 43.7483 12.6006C43.7967 12.5275 43.8185 12.4472 43.8233 12.3644C43.8379 12.2475 43.8185 12.1281 43.7483 12.0283C43.7362 12.0112 43.724 11.9966 43.7119 11.982C43.7071 11.9747 43.7022 11.9698 43.6974 11.9625C42.6342 10.5232 41.3989 9.23491 40.1904 7.91981C38.9527 6.57305 37.7781 5.17028 36.6809 3.70419C36.4218 3.35836 35.9616 3.32427 35.7073 3.70419C35.0727 4.65642 34.598 5.68171 34.2057 6.7557C33.8278 7.78587 33.4088 8.77463 32.893 9.7439C32.3892 10.6864 31.8442 11.607 31.3647 12.5641C31.1273 13.0365 30.8488 13.5382 30.7011 14.0472C30.6115 14.3614 30.6551 14.6877 30.8585 14.9434C31.0232 15.1529 31.2557 15.3112 31.4616 15.4792C32.3868 16.2366 33.3313 16.9696 34.288 17.6856C34.2178 21.1536 34.9516 24.5753 35.361 28.0165C35.0994 27.6609 34.8402 27.3078 34.5811 26.9498C33.1691 25.0112 31.7788 23.0581 30.4104 21.0903C29.6766 20.0358 28.9524 18.9764 28.2306 17.9146C28.4196 17.0135 28.3881 16.0539 28.0369 15.1967C27.5961 14.1178 26.7072 13.4481 25.8111 12.7613C24.043 11.4073 22.1709 10.1871 20.2163 9.12045C19.1216 8.52135 18.0026 7.97095 16.8595 7.46927C16.3944 7.2647 15.944 7.59834 16.0311 8.10977C16.3654 10.08 16.2976 12.0575 15.9803 14.0228C15.68 15.8835 15.3215 17.7904 15.7986 19.6559C16.2176 21.2876 17.2688 22.7171 18.9036 23.2529L18.9012 23.248ZM41.3553 22.4127C41.4571 24.3074 41.6411 26.1924 41.7744 28.0822C40.9533 29.7529 40.0765 31.3919 39.1489 33.0041C38.3691 33.0041 37.5916 32.9992 36.8117 32.9968C36.8045 31.991 36.7827 30.9755 36.6785 29.9794C36.6785 29.9672 36.6737 29.9575 36.6712 29.9453C36.601 29.0077 36.509 28.0701 36.3879 27.1349C36.1118 24.9942 35.7339 22.8657 35.5353 20.7152C35.4409 19.6948 35.3949 18.6671 35.4167 17.6418C36.1166 17.654 36.8166 17.6564 37.5165 17.6418C37.548 17.6418 37.5819 17.6394 37.6134 17.6394C37.8483 17.6321 38.0833 17.6272 38.3158 17.615C38.3376 17.615 38.3569 17.6126 38.3787 17.6126C38.3884 17.6126 38.3981 17.6126 38.4078 17.6126C38.4732 17.6101 38.5362 17.6053 38.6016 17.6004C38.6573 17.598 38.713 17.5931 38.7687 17.5907C38.8656 17.5834 38.9624 17.576 39.0617 17.5687C39.1078 17.5639 39.1538 17.5614 39.1998 17.5566C39.2894 17.5493 39.379 17.5395 39.4686 17.5298C39.5268 17.5249 39.5825 17.5176 39.6406 17.5103C39.7181 17.5006 39.7956 17.4908 39.8707 17.4811C39.9191 17.4738 39.9676 17.4689 40.016 17.4616C40.0354 17.4592 40.0572 17.4543 40.0765 17.4518C40.1008 17.4494 40.1226 17.4445 40.1468 17.4421C40.4592 17.3934 40.7717 17.3155 41.0841 17.257C41.0211 18.9715 41.2657 20.7031 41.3578 22.4127H41.3553ZM24.7018 64.379C24.2247 62.399 23.1082 60.6602 22.0982 58.9091C21.0664 57.1216 20.0323 55.3291 19.1531 53.4588C18.303 51.6517 17.6127 49.7546 17.2664 47.7795C16.8885 45.612 17.0847 43.4372 17.4335 41.2819C17.8234 38.8782 18.2255 36.4623 18.8673 34.1098C21.8536 34.1146 24.8423 34.1195 27.8286 34.1219C27.9352 34.1219 28.0442 34.1219 28.1507 34.1219C28.1507 34.1219 28.1531 34.1219 28.1556 34.1219C28.5286 34.1219 28.9015 34.1219 29.2745 34.1244C29.989 34.1244 30.7059 34.1268 31.4204 34.1293C33.031 34.1317 34.6416 34.1366 36.2498 34.1366C37.0781 34.1366 37.9065 34.1366 38.7348 34.1414C38.9503 34.1414 39.1635 34.1487 39.379 34.1414C39.3935 34.1414 39.4057 34.1414 39.4178 34.139C39.4202 34.139 39.425 34.139 39.4275 34.139C39.442 34.139 39.4565 34.1414 39.4711 34.1414C39.8537 34.1414 40.2364 34.1414 40.6191 34.1414C40.6166 34.2291 40.6142 34.3192 40.607 34.4069C40.6045 34.4507 40.5997 34.497 40.5948 34.5408C40.5876 34.6163 40.5803 34.6918 40.5706 34.7649C40.5585 34.8696 40.5416 34.9719 40.5246 35.0766C40.5173 35.1156 40.5125 35.157 40.5052 35.1959C40.2969 36.3138 39.8174 37.3878 39.1296 38.2962C39.1078 38.3254 39.086 38.3546 39.0617 38.3838C39.023 38.4325 38.9842 38.4813 38.9455 38.5275C38.8704 38.6201 38.7929 38.7102 38.713 38.7979C38.7105 38.8003 38.7081 38.8052 38.7033 38.8076C38.4078 39.1266 38.0833 39.4189 37.7296 39.6721C37.1726 40.0764 36.5889 40.3808 35.9592 40.583C35.6298 40.6853 35.3004 40.7632 34.9541 40.7583C34.5883 40.7413 34.242 40.6268 33.8787 40.5586C33.8739 40.5586 33.869 40.5586 33.8642 40.5562C33.8618 40.5562 33.8569 40.5562 33.8545 40.5562C33.8472 40.5562 33.84 40.5538 33.8327 40.5513C33.8133 40.5489 33.7964 40.5464 33.777 40.544C33.7067 40.5318 33.6365 40.5221 33.5663 40.5148C33.5445 40.5124 33.5227 40.5099 33.5009 40.5075C33.4282 40.5002 33.3531 40.4929 33.2805 40.4904C33.2611 40.4904 33.2393 40.488 33.2199 40.488C33.1424 40.4856 33.0673 40.4831 32.9898 40.4831C32.9729 40.4831 32.9535 40.4831 32.9366 40.4831C32.8494 40.4831 32.7622 40.488 32.675 40.4929C32.629 40.4953 32.5854 40.5002 32.5394 40.5051C32.4982 40.5099 32.4594 40.5124 32.4183 40.5172C32.365 40.5245 32.3117 40.5318 32.2584 40.5416C32.2245 40.5464 32.1906 40.5513 32.1567 40.5586C32.1058 40.5684 32.0574 40.5757 32.0065 40.5879C31.9944 40.5903 31.9799 40.5927 31.9678 40.5952C31.9217 40.6049 31.8757 40.6171 31.8273 40.6293C31.8079 40.6341 31.7861 40.639 31.7667 40.6439C31.1007 40.8192 30.4758 41.1382 29.9357 41.5644C29.8679 41.618 29.8001 41.674 29.7347 41.73C29.7226 41.7398 29.7129 41.7495 29.7008 41.7593C29.6378 41.8153 29.5773 41.8713 29.5167 41.9322C29.4804 41.9687 29.4441 42.0052 29.4077 42.0418C29.3835 42.0661 29.3593 42.0929 29.3351 42.1173C29.3012 42.1538 29.2673 42.1903 29.2358 42.2293C29.2043 42.2634 29.1752 42.2999 29.1462 42.334C29.1244 42.3608 29.1001 42.3876 29.0783 42.4168C29.0202 42.4923 28.9621 42.5678 28.9064 42.6457C28.6884 42.955 28.5164 43.2862 28.3857 43.6345C28.3445 43.7417 28.3082 43.8488 28.2742 43.9584C27.9206 45.1566 28.0781 46.5082 28.6472 47.6261C28.6763 47.6821 28.7054 47.7405 28.7368 47.7965C28.7417 47.8063 28.7465 47.816 28.7538 47.8258C29.0517 48.3615 29.4465 48.8413 29.9309 49.2237C30.0617 49.3284 30.1973 49.4209 30.3353 49.5086C30.5122 49.6255 30.6986 49.7327 30.8948 49.8301C31.0353 49.9007 31.1806 49.9665 31.3284 50.0322C31.4325 50.0809 31.5391 50.1296 31.6456 50.1759C32.1131 50.3853 32.6023 50.6021 32.9947 50.926C33.0165 50.943 33.0359 50.9625 33.0577 50.9796C33.094 51.0112 33.1303 51.0429 33.1642 51.077C33.6389 51.5616 33.8521 52.224 33.9732 52.8938C34.0434 53.281 34.087 53.6755 34.1136 54.0701C34.1136 54.0749 34.1136 54.0798 34.1136 54.0847C34.1185 54.1577 34.1209 54.2284 34.1233 54.3014C34.1282 54.4061 34.1306 54.5109 34.1354 54.6107C34.1403 54.7179 34.1403 54.825 34.1427 54.9322C34.1427 55.0101 34.1427 55.088 34.1427 55.166C34.1427 55.2269 34.1427 55.2902 34.1427 55.3511C34.1427 55.4753 34.1379 55.6019 34.133 55.7285C34.133 55.7846 34.1306 55.8381 34.1257 55.8941C34.1185 56.0403 34.1088 56.1864 34.0967 56.3349C34.0943 56.3666 34.0918 56.3983 34.0894 56.4299C34.0749 56.6004 34.0555 56.7709 34.0337 56.9414C34.0264 57.0022 34.0168 57.0607 34.0071 57.1216C33.9901 57.2385 33.9732 57.3529 33.9538 57.4698C33.9417 57.5331 33.9296 57.5989 33.9175 57.6622C33.8932 57.7864 33.869 57.9082 33.84 58.0324C33.8303 58.0787 33.8182 58.1274 33.8085 58.1736C33.6753 58.7216 33.496 59.255 33.2611 59.7615C32.6992 60.9768 31.8563 61.9606 30.7568 62.6791C29.3157 63.6021 27.567 64.0088 25.862 64.245C25.7723 64.2572 25.6803 64.2694 25.5907 64.2816C25.5205 64.2913 25.4502 64.2986 25.38 64.3083C25.2855 64.3205 25.1911 64.3303 25.099 64.3424C24.9658 64.3571 24.8326 64.3717 24.6994 64.3863L24.7018 64.379ZM53.2594 34.1633C54.2766 34.1633 55.2938 34.1658 56.3111 34.1682C57.711 37.4462 58.9316 40.8046 59.9634 44.219C60.116 44.7255 60.2662 45.2321 60.4115 45.7411C60.5447 46.2038 60.7021 46.6641 60.673 47.1512C60.627 47.5749 60.3606 47.9743 60.1015 48.3007C59.7769 48.7074 59.4088 49.0824 59.0237 49.4282C58.2608 50.1175 57.401 50.6849 56.5169 51.2061C56.3547 51.301 56.2215 51.5007 56.2384 51.6956C56.328 52.8645 56.3522 54.0506 56.3304 55.222C56.3086 56.296 56.2142 57.37 55.8993 58.4001C55.6063 59.3645 55.1025 60.2291 54.3929 60.9451C53.6881 61.6562 52.8379 62.1993 51.937 62.6206C50.7284 63.1856 49.4108 63.4998 48.1102 63.7555C46.829 64.0161 45.526 64.2791 44.2181 64.3644C43.0386 64.4423 41.8276 64.3546 40.7741 63.7677C40.1371 63.4146 39.5679 64.3936 40.2049 64.7467C41.4062 65.414 42.7843 65.5845 44.1406 65.5041C45.2693 65.4359 46.3979 65.246 47.512 65.0292C47.4127 65.5528 47.3473 66.0837 47.2795 66.6122C47.1657 67.4743 47.0664 68.3364 46.984 69.201C46.8193 70.8985 46.7128 72.6032 46.6643 74.308C46.6425 75.0775 46.6159 75.8544 46.6716 76.624C43.9469 76.8602 41.2052 76.926 38.4732 76.8091C35.5426 76.6849 32.6411 76.3001 29.7347 75.9153C28.2839 75.7229 26.8307 75.5305 25.38 75.3381C25.4308 73.6602 25.4212 71.9822 25.3388 70.3067C25.2613 68.7066 25.1644 67.0822 24.915 65.4919C25.0094 65.4822 25.1063 65.47 25.2008 65.4578C25.2322 65.453 25.2661 65.4505 25.2976 65.4457C26.6757 65.2849 28.0538 65.0609 29.3593 64.5957C29.4901 64.5494 29.616 64.5007 29.7444 64.4496C29.771 64.4399 29.7952 64.4277 29.8219 64.4179C29.9139 64.3814 30.0035 64.3424 30.0932 64.301C30.764 64.0088 31.4059 63.6435 31.9968 63.1808C32.4013 62.8642 32.7622 62.511 33.0843 62.1287C33.2175 61.9728 33.3483 61.8097 33.4718 61.6416C34.3849 60.385 34.8766 58.8726 35.1091 57.3456C35.1091 57.3359 35.1115 57.3237 35.1139 57.314C35.126 57.2263 35.1406 57.1411 35.1502 57.0534C35.1527 57.0315 35.1551 57.012 35.1575 56.9901C35.1793 56.8196 35.1987 56.6515 35.2132 56.4811C35.2132 56.4665 35.2156 56.4494 35.2181 56.4348C35.2181 56.4153 35.2229 56.3934 35.2229 56.3739C35.3052 55.3632 35.298 54.3136 35.1696 53.2932C35.126 52.9181 35.0631 52.5455 34.971 52.1826C34.9662 52.1607 34.9589 52.1388 34.9541 52.1145C34.9468 52.0852 34.9395 52.0584 34.9323 52.0292C34.925 52 34.9129 51.9732 34.9056 51.944C34.8911 51.8977 34.8766 51.849 34.862 51.8027C34.8451 51.754 34.8305 51.7053 34.8112 51.6566C34.6537 51.2304 34.4382 50.831 34.1475 50.4754C33.8884 50.1588 33.5614 49.908 33.2102 49.6961C33.1473 49.6572 33.0843 49.6231 33.0213 49.5865C33.0141 49.5817 33.0068 49.5792 33.0019 49.5744C32.4449 49.2675 31.837 49.0508 31.2775 48.7512C30.5025 48.3372 29.9115 47.6772 29.5676 46.9052C29.5676 46.9028 29.5652 46.8979 29.5627 46.8955C29.5361 46.8346 29.5095 46.7713 29.4852 46.7079C29.478 46.6884 29.4707 46.669 29.4634 46.6495C29.4392 46.5837 29.4174 46.518 29.398 46.4498C29.3859 46.4084 29.3738 46.367 29.3641 46.3256C29.3544 46.2939 29.3472 46.2623 29.3399 46.2306C29.3302 46.1916 29.3205 46.1502 29.3133 46.1113C29.3036 46.0699 29.2963 46.0285 29.2891 45.9895C29.2842 45.9603 29.2769 45.9286 29.2721 45.897C29.2479 45.7362 29.2309 45.5755 29.2261 45.4123C29.1873 44.0899 29.8655 42.9088 30.9893 42.2049C31.0062 42.1952 31.0232 42.183 31.0401 42.1733C31.0934 42.1416 31.1491 42.11 31.2048 42.0783C31.2242 42.0686 31.2412 42.0588 31.2605 42.0491C31.5536 41.8956 31.8612 41.7812 32.1785 41.7057C32.1906 41.7033 32.2027 41.6984 32.2148 41.6959C32.2923 41.6789 32.3698 41.6643 32.4473 41.6521C32.4618 41.6497 32.4788 41.6472 32.4933 41.6448C32.5563 41.6351 32.6193 41.6278 32.6822 41.6229C32.7065 41.6229 32.7307 41.618 32.7549 41.618C32.813 41.6131 32.8736 41.6107 32.9317 41.6083C32.9535 41.6083 32.9729 41.6083 32.9947 41.6083C33.0722 41.6083 33.1497 41.6083 33.2272 41.6131C33.2296 41.6131 33.2345 41.6131 33.2369 41.6131C33.6244 41.6351 34.0192 41.7666 34.4454 41.8396C34.4503 41.8396 34.4551 41.8396 34.4624 41.8396C34.661 41.8762 34.862 41.8981 35.0655 41.8956C35.2907 41.8908 35.5135 41.8615 35.7339 41.8153C35.8308 41.7958 35.9253 41.7763 36.0222 41.7495C37.6013 41.3282 38.9527 40.3516 39.9482 39.0828C39.9772 39.0463 40.0039 39.0097 40.0329 38.9732C40.0741 38.9196 40.1153 38.8636 40.1565 38.8076C40.7983 37.9284 41.2754 36.9226 41.5346 35.8608C41.6484 35.3956 41.7211 34.9159 41.7501 34.4361C41.755 34.3387 41.7598 34.2413 41.7622 34.1439C42.2176 34.1439 42.6753 34.1439 43.1307 34.1439C44.7776 34.1439 46.4245 34.1463 48.0691 34.1512C49.004 34.1512 49.9388 34.1536 50.8737 34.156C50.8737 34.156 50.8786 34.156 50.881 34.156C51.6754 34.156 52.4698 34.1585 53.2642 34.1609L53.2594 34.1633ZM42.2273 29.7066C42.2636 29.636 42.2975 29.5654 42.3338 29.4947C42.3532 29.4582 42.3726 29.4193 42.392 29.3827C42.4065 29.3511 42.4234 29.3218 42.438 29.2902C43.2905 29.6628 44.1019 30.1231 44.8575 30.671C45.0973 30.8439 45.4969 30.7197 45.6301 30.4665C45.7851 30.1742 45.6834 29.8771 45.4267 29.6896C44.6492 29.127 43.8137 28.6545 42.9345 28.2746C43.2033 27.7145 43.4625 27.1495 43.724 26.5845C43.7362 26.5942 43.7507 26.604 43.7628 26.6137C43.9008 26.7184 44.0631 26.7866 44.206 26.8792C44.2327 26.9035 44.2593 26.9254 44.2835 26.9522C44.3344 27.0082 44.3949 27.0472 44.4652 27.0691C44.533 27.1056 44.6056 27.1203 44.6831 27.1178C44.8212 27.1178 44.9859 27.0569 45.0828 26.9522C45.1821 26.8451 45.2547 26.7014 45.2475 26.5504C45.2402 26.4992 45.2329 26.4505 45.2281 26.3994C45.2015 26.3044 45.153 26.2192 45.0828 26.1486C44.9689 26.0146 44.8139 25.9099 44.6613 25.8246C44.562 25.7686 44.4627 25.7175 44.3707 25.6542C44.3634 25.6469 44.3562 25.642 44.3489 25.6347C44.3489 25.6347 44.3489 25.6298 44.3465 25.6298C44.3344 25.5494 44.3102 25.474 44.269 25.4058C44.5524 24.7945 44.8382 24.1856 45.1336 23.5817C45.3226 23.7546 45.5139 23.9299 45.7028 24.1028C45.9353 24.3147 46.1654 24.5266 46.3979 24.7385C46.5142 24.8456 46.6304 24.9503 46.7443 25.0575C46.8 25.1086 46.8557 25.1574 46.9089 25.2085C46.9162 25.2158 46.9235 25.2231 46.9332 25.2304C47.0712 25.6225 47.5992 25.7321 47.8971 25.4423C48.1684 25.1768 48.0981 24.7677 47.8414 24.529C47.6016 24.305 47.357 24.0858 47.1148 23.8617C46.8726 23.6401 46.6304 23.4185 46.3882 23.1944C46.272 23.0873 46.1557 22.9826 46.0419 22.8754C45.9983 22.8364 45.9547 22.795 45.9111 22.7561C45.9014 22.6221 45.8409 22.4809 45.7464 22.3762C45.7537 22.3615 45.7609 22.3494 45.7682 22.3348C45.9135 22.0571 46.0661 21.7819 46.2211 21.5092C46.3543 21.6261 46.4875 21.743 46.6207 21.8599C46.6716 21.9159 46.7321 21.9548 46.8024 21.9768C46.8702 22.0133 46.9429 22.0279 47.0204 22.0255C47.0979 22.0279 47.1705 22.0133 47.2383 21.9768C47.3086 21.9548 47.3691 21.9159 47.42 21.8599C47.5193 21.7527 47.5919 21.609 47.5847 21.458C47.5774 21.3143 47.5314 21.156 47.42 21.0562C47.2141 20.876 47.0107 20.6958 46.8048 20.5155C47.1802 19.8994 47.5677 19.2905 47.9674 18.689C48.0667 18.745 48.1732 18.7913 48.2822 18.8303C48.3088 18.84 48.3379 18.8497 48.3646 18.8595C48.3646 18.8595 48.3646 18.8595 48.367 18.8595C48.3912 18.8741 48.4154 18.8936 48.4203 18.896C48.4227 18.896 48.4324 18.9033 48.4421 18.9106C48.4614 18.9252 48.5099 18.9618 48.5171 18.9691C48.5462 18.991 48.5753 19.0129 48.6019 19.0348C48.6721 19.0909 48.7448 19.1469 48.815 19.2029C49.343 19.6145 49.871 20.0285 50.3966 20.44C50.5201 20.5375 50.6315 20.6056 50.7962 20.6056C50.9343 20.6056 51.099 20.5448 51.1958 20.44C51.3823 20.2379 51.4453 19.8336 51.1958 19.6388C50.6969 19.2491 50.198 18.8571 49.6991 18.4674C49.578 18.3724 49.4569 18.2774 49.3358 18.1825C49.2026 18.0802 49.0766 17.9608 48.9289 17.8805C48.8247 17.822 48.7109 17.7806 48.5971 17.7417C48.8489 17.3715 49.1008 17.0013 49.3527 16.6311C49.3769 16.5946 49.4012 16.5605 49.4254 16.524C49.4448 16.524 49.4617 16.5191 49.4811 16.5167C49.8759 16.7797 50.2707 17.0403 50.6654 17.3033C50.9125 17.4665 51.3 17.3617 51.438 17.0987C51.5882 16.8138 51.4986 16.4972 51.2346 16.3218C50.8495 16.0661 50.4668 15.8128 50.0817 15.5571C50.4935 14.9532 50.9052 14.3516 51.3145 13.7476C52.6829 14.3565 53.9739 15.1431 55.2745 15.8786C56.5557 16.6043 57.8393 17.3276 59.1206 18.0534C56.856 21.9597 54.606 25.8734 52.3754 29.7992C51.765 30.8707 51.1595 31.9423 50.5516 33.0163C48.5656 33.0139 46.5796 33.009 44.5935 33.0065C43.6296 33.0065 42.6632 33.0065 41.6993 33.0041C41.4668 33.0041 41.2367 33.0041 41.0042 33.0041C40.9 33.0041 40.7959 33.0041 40.6893 33.0041C40.6118 33.0041 40.5319 33.0041 40.4544 33.0041C40.5246 32.8799 40.5973 32.7557 40.6675 32.6315C40.6869 32.5974 40.7038 32.5633 40.7232 32.5292C40.7692 32.4464 40.8153 32.3612 40.8613 32.2759C41.0017 32.0202 41.1446 31.7669 41.2827 31.5112C41.2875 31.5137 41.29 31.5161 41.2924 31.5185C41.4377 31.6086 41.5806 31.6988 41.7259 31.7913C41.7986 31.8376 41.8712 31.8814 41.9439 31.9277C42.0141 31.9715 42.0819 32.0202 42.1643 32.0397C42.2079 32.0494 42.2515 32.0543 42.2951 32.0641C42.3702 32.0884 42.4452 32.0908 42.5203 32.0738C42.5954 32.0714 42.6656 32.047 42.731 32.0056C42.8473 31.9374 42.9587 31.801 42.9902 31.6671C43.0241 31.521 43.0168 31.3578 42.9345 31.2312C42.8594 31.1143 42.7407 30.9974 42.5978 30.9706C42.576 30.9657 42.5518 30.9633 42.53 30.9584C42.3096 30.8196 42.0868 30.6808 41.8664 30.542C41.8519 30.5322 41.8325 30.5249 41.8155 30.5176C41.8228 30.503 41.8325 30.4859 41.8397 30.4713C41.9269 30.3057 42.0117 30.1377 42.0965 29.9696C42.1425 29.8795 42.1909 29.7919 42.2345 29.7018L42.2273 29.7066ZM36.8505 11.7799C37.0031 11.8554 37.1944 11.8334 37.3518 11.7482C37.3688 11.7726 37.3833 11.7994 37.4003 11.8261C37.6497 12.2743 37.6836 12.8368 37.4027 13.2606C37.3276 13.375 37.1314 13.5187 36.9958 13.5626C36.9352 13.582 36.8747 13.5991 36.8117 13.6113C36.8069 13.6113 36.7197 13.621 36.7027 13.621C36.6494 13.621 36.5962 13.621 36.5453 13.6161C36.5501 13.6137 36.4387 13.5845 36.4169 13.5772C36.4097 13.5772 36.4097 13.5747 36.4048 13.5723C36.3733 13.5577 36.3419 13.5382 36.3128 13.5212C36.2426 13.4773 36.3007 13.5212 36.2377 13.4578C36.1965 13.4189 36.1142 13.2971 36.0924 13.2338C36.0294 13.0657 36.0246 12.8271 36.0609 12.6444C36.1166 12.3741 36.2183 12.116 36.3758 11.9406C36.3927 11.9211 36.4072 11.9065 36.4242 11.8895C36.5719 11.8846 36.7124 11.8383 36.848 11.775L36.8505 11.7799ZM34.6489 16.5459C33.9732 16.0369 33.3023 15.5182 32.6435 14.9873C32.4449 14.8265 32.2463 14.6658 32.0477 14.5026C31.9847 14.449 31.8878 14.337 31.8055 14.2859C31.8055 14.281 31.8055 14.2786 31.8103 14.2737C31.9193 14.0716 31.9944 13.8426 32.0913 13.6356C32.2003 13.4043 32.3141 13.1729 32.4304 12.9464C32.893 12.0453 33.4064 11.1735 33.8835 10.2797C34.3801 9.34937 34.8039 8.39471 35.1648 7.40351C35.3658 6.85312 35.5789 6.31734 35.826 5.7986C36.027 7.40351 36.228 9.00599 36.429 10.6109C35.872 10.7668 35.3706 11.3074 35.1527 11.8115C34.8039 12.6128 34.7869 13.6478 35.4603 14.2907C36.0972 14.8947 37.1314 14.8996 37.8314 14.3979C38.6234 13.8329 38.8728 12.8052 38.6234 11.887C38.4853 11.3756 38.1874 10.8179 37.6982 10.5719C37.6473 10.5451 37.594 10.5257 37.5407 10.5086C37.347 8.97189 37.1556 7.43761 36.9619 5.90089C37.703 6.82389 38.4708 7.72498 39.2676 8.59684C40.3914 9.82427 41.5612 11.0176 42.5688 12.3449C42.2176 12.9172 41.9221 13.5187 41.6872 14.1495C41.4498 14.7876 41.2827 15.45 41.1156 16.1124C40.8467 16.1538 40.5803 16.2122 40.3115 16.2658C40.2073 16.2853 40.1032 16.3048 39.999 16.3243C39.9191 16.3389 39.8392 16.3511 39.7568 16.3608C39.7036 16.3681 39.6503 16.3754 39.597 16.3827C39.5001 16.3949 39.4057 16.4046 39.3088 16.4144C39.27 16.4192 39.2337 16.4217 39.1949 16.4266C39.0932 16.4363 38.9891 16.4436 38.8874 16.4509C38.851 16.4533 38.8147 16.4558 38.7784 16.4582C38.6791 16.4655 38.5798 16.4704 38.4805 16.4753C38.449 16.4753 38.4151 16.4777 38.3836 16.4801C38.1244 16.4923 37.8653 16.5021 37.6061 16.5094C37.5746 16.5094 37.5407 16.5118 37.5092 16.5118C36.6276 16.5337 35.7436 16.524 34.862 16.5045C34.7821 16.5045 34.7094 16.5191 34.6416 16.5483L34.6489 16.5459ZM27.2933 19.9725C27.3369 19.914 27.3781 19.8556 27.4193 19.7947C27.4362 19.7703 27.4508 19.7435 27.4677 19.7192C27.5355 19.6169 27.5985 19.5097 27.6591 19.4026C27.6857 19.3539 27.7123 19.3076 27.739 19.2589C27.7463 19.2467 27.7535 19.2345 27.7608 19.2199C29.7032 22.0669 31.6844 24.8822 33.7164 27.6658C34.3292 28.506 34.9468 29.3413 35.5668 30.1767C35.5668 30.184 35.5668 30.1888 35.5668 30.1961C35.5983 30.6394 35.6225 31.0826 35.6395 31.5258C35.6419 31.5916 35.6443 31.6549 35.6467 31.7207C35.6637 32.1323 35.6734 32.5438 35.6807 32.9554C35.6807 32.97 35.6807 32.9822 35.6807 32.9968C34.9686 32.9968 34.2565 32.9968 33.5469 32.9968C31.7764 32.9968 30.0084 32.9919 28.2379 32.9871C27.2909 31.7669 26.7581 30.3155 25.9855 28.9858C25.5665 28.2673 25.0579 27.6073 24.5541 26.9498C24.0164 26.2508 23.4739 25.5543 22.9362 24.8578C22.5463 24.3537 22.1539 23.8496 21.764 23.3454C22.0134 23.2943 22.2605 23.231 22.5027 23.1579C22.5535 23.1433 22.602 23.1287 22.6504 23.1116C22.6698 23.1043 22.6916 23.0995 22.711 23.0922C23.6313 22.7999 24.5105 22.364 25.3049 21.8331C25.3945 21.7746 25.4817 21.7137 25.5689 21.6504C25.5713 21.648 25.5762 21.6456 25.5786 21.6431C25.6634 21.5822 25.7481 21.5189 25.8305 21.4556C25.8644 21.4288 25.8983 21.402 25.9322 21.3752C25.9831 21.3338 26.0339 21.2949 26.0824 21.251C26.126 21.2145 26.1671 21.1804 26.2083 21.1439C26.247 21.1098 26.2834 21.0781 26.3197 21.044C26.3681 21.0002 26.4142 20.9588 26.4626 20.9125C26.4747 20.9003 26.4868 20.8882 26.4989 20.876C26.6152 20.7639 26.729 20.6471 26.838 20.5277C26.8525 20.5107 26.8695 20.4936 26.884 20.4766C26.9349 20.4206 26.9833 20.3621 27.0318 20.3061C27.0536 20.2817 27.0729 20.255 27.0947 20.2306C27.1408 20.1746 27.1844 20.1161 27.2304 20.0577C27.2522 20.0285 27.2715 20.0017 27.2933 19.9725ZM17.0653 14.3224C17.2397 13.2484 17.3753 12.1744 17.3875 11.0858C17.3947 10.3527 17.3511 9.6197 17.2688 8.89152C18.8552 9.63675 20.398 10.4769 21.8851 11.4073C22.786 11.9723 23.6676 12.5714 24.525 13.1997C24.9198 13.4895 25.3122 13.7842 25.6948 14.091C26.0727 14.3906 26.4626 14.7072 26.7314 15.1139C27.2691 15.9346 27.3248 16.9453 27.0826 17.8732C27.0584 17.9608 27.0318 18.0461 27.0027 18.1313C26.993 18.163 26.9785 18.1946 26.9688 18.2239C26.9494 18.275 26.93 18.3286 26.9082 18.3797C26.8937 18.4163 26.8768 18.4528 26.8598 18.4893C26.8404 18.5331 26.8211 18.577 26.7993 18.6208C26.7799 18.6598 26.7605 18.6963 26.7411 18.7353C26.7193 18.7767 26.6975 18.8157 26.6757 18.8546C26.6539 18.8911 26.6346 18.9277 26.6128 18.9642C26.5885 19.0056 26.5619 19.047 26.5353 19.086C26.5135 19.1176 26.4941 19.1517 26.4723 19.1834C26.436 19.2394 26.3972 19.293 26.356 19.3466C26.3439 19.3636 26.3342 19.3782 26.3221 19.3953C25.7554 20.1429 24.9852 20.7396 24.1714 21.2048C23.7548 21.4434 23.3019 21.6675 22.8321 21.855C22.8175 21.8599 22.803 21.8672 22.7909 21.872C22.786 21.872 22.7788 21.8769 22.7739 21.8769C22.1103 22.1278 21.4176 22.2958 20.7153 22.3348C20.6813 22.3348 20.6499 22.3421 20.6184 22.3469C20.2454 22.3567 19.8748 22.325 19.5115 22.2373C18.0777 21.894 17.2397 20.7128 16.8885 19.3466C16.4695 17.7149 16.8013 15.9784 17.0702 14.3175L17.0653 14.3224Z" fill="#282828"/>
<path d="M69.954 5.82538C69.954 5.82538 69.9419 5.80346 69.9371 5.79128C69.9322 5.77911 69.9274 5.76937 69.9201 5.75719C69.8959 5.71335 69.8693 5.67195 69.8354 5.63786C69.7651 5.56723 69.6852 5.52339 69.6028 5.49904C69.598 5.49904 69.5932 5.49417 69.5859 5.49173C67.3238 4.65884 66.2775 2.12849 65.0205 0.270303C64.6935 -0.211901 64.0226 -0.00732948 63.9693 0.557676C63.7417 2.99548 62.2739 5.09964 60.8111 6.96757C60.6367 7.18919 60.5543 7.55693 60.8111 7.7688C63.0005 9.58072 64.7104 11.9552 65.6938 14.6341C65.7906 14.8971 66.0207 15.0847 66.3114 15.0408C66.5681 15.0019 66.8224 14.7681 66.8006 14.4831C66.6747 12.922 67.0525 11.4048 67.549 9.93872C67.7767 9.26169 67.9971 8.55786 68.3604 7.93928C68.7212 7.32313 69.2831 6.87989 69.8329 6.44153C69.9371 6.35873 69.9855 6.23209 69.9928 6.09814C69.9928 6.08109 69.9952 6.06405 69.9952 6.047C69.9952 6.04456 69.9952 6.04213 69.9952 6.03969C69.9952 5.9642 69.9783 5.89357 69.9516 5.82782L69.954 5.82538ZM67.4328 7.29147C67.0089 7.98312 66.7546 8.78435 66.4954 9.54906C66.2097 10.3917 65.9578 11.2563 65.8076 12.1379C64.8364 10.3065 63.5455 8.65284 61.9857 7.28417C63.2016 5.689 64.3108 3.98424 64.8291 2.05543C65.8125 3.63111 66.8055 5.24089 68.4064 6.16877C68.0382 6.49998 67.7016 6.86041 67.4352 7.29391L67.4328 7.29147Z" fill="#282828"/>
<path d="M50.2585 54.7154C50.2246 54.6764 50.1931 54.6399 50.1616 54.6009C50.1568 54.5961 50.1229 54.5522 50.1059 54.5328C49.9921 54.3818 49.8855 54.221 49.7887 54.0579C49.7378 53.9702 49.6894 53.8825 49.6458 53.7924C49.624 53.7486 49.6022 53.7023 49.5804 53.656C49.5731 53.6414 49.5561 53.6024 49.5489 53.583C49.469 53.3881 49.4036 53.1884 49.3527 52.9863C49.2776 52.6989 48.9458 52.4968 48.66 52.5893C48.367 52.6843 48.1853 52.979 48.2652 53.2859C48.7472 55.1416 50.2537 56.6661 52.0968 57.163C52.3826 57.2385 52.7217 57.068 52.7895 56.766C52.8573 56.4689 52.6999 56.1498 52.3947 56.0695C52.2978 56.0427 52.2009 56.0159 52.1065 55.9842C52.058 55.9672 52.012 55.9526 51.966 55.9331C51.9539 55.9282 51.8764 55.899 51.8473 55.8868C51.8207 55.8746 51.7626 55.8503 51.7529 55.8454C51.7069 55.8235 51.6633 55.8016 51.6172 55.7797C51.5276 55.7334 51.4404 55.6871 51.3532 55.636C51.2588 55.58 51.1692 55.5215 51.0796 55.4606C51.0384 55.4314 50.9972 55.4022 50.956 55.373C50.9464 55.3657 50.9076 55.3364 50.8882 55.3218C50.7381 55.2025 50.5952 55.0734 50.462 54.937C50.3917 54.8664 50.3239 54.7909 50.2561 54.7154H50.2585Z" fill="#282828"/>
<path d="M5.04751 34.7746C5.14439 35.0376 5.37448 35.2252 5.66512 35.1813C5.92185 35.1424 6.17615 34.9086 6.15436 34.6236C6.02841 33.0626 6.40624 31.5453 6.90275 30.0792C7.13041 29.4022 7.35081 28.6984 7.71411 28.0798C8.07498 27.4636 8.63688 27.0204 9.18667 26.582C9.29082 26.4992 9.33926 26.3726 9.34652 26.2386C9.34652 26.2216 9.34894 26.2046 9.34894 26.1875C9.34894 26.1851 9.34894 26.1826 9.34894 26.1802C9.34894 26.1047 9.33199 26.0341 9.30535 25.9683C9.3005 25.9561 9.29324 25.9464 9.28839 25.9342C9.28355 25.9221 9.27871 25.9123 9.27144 25.9001C9.24722 25.8563 9.22058 25.8149 9.18667 25.7808C9.11644 25.7102 9.03651 25.6663 8.95416 25.642C8.94932 25.642 8.94448 25.6371 8.93721 25.6347C6.67508 24.8018 5.62879 22.2714 4.37178 20.4132C4.04481 19.931 3.37393 20.1356 3.32064 20.7006C3.09298 23.1384 1.62526 25.2426 0.162383 27.1105C-0.0119991 27.3321 -0.0943463 27.6999 0.162383 27.9117C2.35185 29.7237 4.06177 32.0981 5.04509 34.7771L5.04751 34.7746ZM4.1756 22.1984C5.15892 23.7741 6.15193 25.3838 7.75286 26.3117C7.38472 26.6429 7.04807 27.0034 6.78165 27.4369C6.3578 28.1285 6.10349 28.9297 5.84434 29.6944C5.55855 30.5371 5.30666 31.4016 5.1565 32.2832C4.18529 30.4518 2.89437 28.7982 1.33462 27.4295C2.55045 25.8344 3.65972 24.1296 4.17802 22.2008L4.1756 22.1984Z" fill="#282828"/>
</g>
<defs>
<clipPath id="clip0_138_2101">
<rect width="70" height="78" fill="white"/>
</clipPath>
</defs>
</svg>
