<svg width="1432" height="30" viewBox="0 0 1432 30" fill="none" xmlns="http://www.w3.org/2000/svg">
<g clip-path="url(#clip0_138_2178)">
<g clip-path="url(#clip1_138_2178)">
<path d="M334.802 9.17889C332.567 9.17889 331.404 8.25103 330.377 7.4311C329.395 6.64822 328.468 5.90883 326.604 5.90883C324.74 5.90883 323.812 6.64822 322.831 7.4311C321.804 8.24942 320.64 9.17889 318.408 9.17889C316.175 9.17889 315.009 8.25103 313.983 7.4311C313.001 6.64822 312.074 5.90883 310.21 5.90883C308.345 5.90883 307.418 6.64822 306.438 7.4311C305.411 8.24942 304.248 9.17889 302.015 9.17889C299.782 9.17889 298.619 8.25103 297.592 7.4311C296.61 6.64822 295.683 5.90883 293.82 5.90883C291.958 5.90883 291.029 6.64822 290.047 7.4311C289.02 8.24942 287.857 9.17889 285.624 9.17889C283.391 9.17889 282.228 8.25103 281.201 7.4311C280.219 6.64822 279.294 5.90883 277.429 5.90883C275.565 5.90883 274.638 6.64822 273.656 7.4311C272.63 8.24942 271.466 9.17889 269.233 9.17889C267 9.17889 265.837 8.25103 264.81 7.4311C263.828 6.64822 262.901 5.90883 261.037 5.90883C259.172 5.90883 258.245 6.64822 257.265 7.4311C256.239 8.24942 255.075 9.17889 252.842 9.17889C250.609 9.17889 249.446 8.25103 248.419 7.4311C247.437 6.64822 246.512 5.90883 244.648 5.90883C242.783 5.90883 241.856 6.64822 240.876 7.4311C239.849 8.24942 238.686 9.17889 236.453 9.17889C234.22 9.17889 233.057 8.25103 232.03 7.4311C231.048 6.64822 230.123 5.90883 228.258 5.90883C226.394 5.90883 225.467 6.64822 224.487 7.4311C223.46 8.24942 222.297 9.17889 220.064 9.17889C217.831 9.17889 216.667 8.25103 215.641 7.4311C214.659 6.64822 213.732 5.90883 211.867 5.90883C210.003 5.90883 209.076 6.64822 208.096 7.4311C207.069 8.24942 205.906 9.17889 203.673 9.17889C201.44 9.17889 200.276 8.25103 199.25 7.4311C198.268 6.64822 197.343 5.90883 195.478 5.90883C193.614 5.90883 192.687 6.64822 191.706 7.4311C190.68 8.24942 189.516 9.17889 187.284 9.17889C185.051 9.17889 183.887 8.25103 182.861 7.4311C181.879 6.64822 180.953 5.90883 179.089 5.90883C177.225 5.90883 176.297 6.64822 175.317 7.4311C174.291 8.24942 173.127 9.17889 170.894 9.17889C168.661 9.17889 167.498 8.25103 166.471 7.4311C165.49 6.64822 164.564 5.90883 162.7 5.90883C160.835 5.90883 159.908 6.64822 158.928 7.4311C157.902 8.24942 156.738 9.17889 154.505 9.17889C152.272 9.17889 151.109 8.25103 150.082 7.4311C149.1 6.64822 148.175 5.90883 146.311 5.90883C144.446 5.90883 143.519 6.64822 142.539 7.4311C141.512 8.24942 140.349 9.17889 138.116 9.17889C135.883 9.17889 134.719 8.25103 133.693 7.4311C132.711 6.64822 131.786 5.90883 129.921 5.90883C128.057 5.90883 127.13 6.64822 126.15 7.4311C125.123 8.24942 123.96 9.17889 121.727 9.17889C119.494 9.17889 118.33 8.25103 117.304 7.4311C116.322 6.64822 115.397 5.90883 113.532 5.90883C111.668 5.90883 110.741 6.64822 109.76 7.4311C108.734 8.24942 107.57 9.17889 105.337 9.17889C103.105 9.17889 101.941 8.25103 100.915 7.4311C99.9327 6.64822 99.0073 5.90883 97.1429 5.90883C95.2784 5.90883 94.3514 6.64822 93.3712 7.4311C92.3447 8.24942 91.1811 9.17889 88.9483 9.17889C86.7154 9.17889 85.5518 8.25103 84.5254 7.4311C83.5435 6.64822 82.6181 5.90883 80.7537 5.90883C78.8892 5.90883 77.9622 6.64822 76.9819 7.4311C75.9555 8.24942 74.7919 9.17889 72.5591 9.17889C70.3262 9.17889 69.1626 8.25103 68.1362 7.4311C67.1542 6.64822 66.2289 5.90883 64.3644 5.90883C62.5 5.90883 61.5729 6.64822 60.5927 7.4311C59.5663 8.24942 58.4027 9.17889 56.1698 9.17889C53.937 9.17889 52.7734 8.25103 51.7469 7.4311C50.765 6.64822 49.8397 5.90883 47.9752 5.90883C46.1108 5.90883 45.1837 6.64822 44.2035 7.4311C43.177 8.24942 42.0135 9.17889 39.7806 9.17889C37.5477 9.17889 36.3842 8.25103 35.3577 7.4311C34.3758 6.64822 33.4504 5.90883 31.586 5.90883C29.7216 5.90883 28.7945 6.64822 27.8143 7.4311C26.7878 8.24942 25.6243 9.17889 23.3914 9.17889C21.1585 9.17889 19.995 8.25103 18.9685 7.4311C17.9866 6.64822 17.0612 5.90883 15.1968 5.90883C13.3323 5.90883 12.4053 6.64822 11.4251 7.4311C10.3986 8.24942 9.23505 9.17889 7.00218 9.17889C4.76931 9.17889 3.60575 8.25103 2.57928 7.4311C1.59737 6.64822 0.672005 5.90883 -1.19243 5.90883C-3.05687 5.90883 -3.98395 6.64822 -4.96415 7.4311C-5.99061 8.24942 -7.15417 9.17889 -9.38704 9.17889C-11.6199 9.17889 -12.7835 8.25103 -13.8099 7.4311C-14.7918 6.64822 -15.7172 5.90883 -17.5816 5.90883C-19.4461 5.90883 -20.3732 6.64822 -21.3534 7.4311C-22.3798 8.24942 -23.5434 9.17889 -25.7763 9.17889C-28.0091 9.17889 -29.1727 8.25103 -30.1992 7.4311C-31.2085 6.64822 -32.1356 5.90883 -34 5.90883V4.96326C-31.7671 4.96326 -30.6036 5.89112 -29.5771 6.71105C-28.5952 7.49393 -27.6698 8.23331 -25.8054 8.23331C-23.941 8.23331 -23.0139 7.49393 -22.0337 6.71105C-21.0072 5.89273 -19.8436 4.96326 -17.6108 4.96326C-15.3779 4.96326 -14.2144 5.89112 -13.1879 6.71105C-12.206 7.49393 -11.2806 8.23331 -9.41617 8.23331C-7.55173 8.23331 -6.62466 7.49393 -5.64446 6.71105C-4.61799 5.89273 -3.45443 4.96326 -1.22157 4.96326C1.0113 4.96326 2.17486 5.89112 3.20133 6.71105C4.18325 7.49393 5.10861 8.23331 6.97305 8.23331C8.83748 8.23331 9.76456 7.49393 10.7448 6.71105C11.7712 5.89273 12.9348 4.96326 15.1677 4.96326C17.4005 4.96326 18.5641 5.89112 19.5906 6.71105C20.5725 7.49393 21.4978 8.23331 23.3623 8.23331C25.2267 8.23331 26.1538 7.49393 27.134 6.71105C28.1604 5.89273 29.324 4.96326 31.5569 4.96326C33.7897 4.96326 34.9533 5.89112 35.9798 6.71105C36.9617 7.49393 37.887 8.23331 39.7515 8.23331C41.6159 8.23331 42.543 7.49393 43.5232 6.71105C44.5497 5.89273 45.7132 4.96326 47.9461 4.96326C50.179 4.96326 51.3425 5.89112 52.369 6.71105C53.3509 7.49393 54.2763 8.23331 56.1407 8.23331C58.0051 8.23331 58.9322 7.49393 59.9124 6.71105C60.9389 5.89273 62.1024 4.96326 64.3353 4.96326C66.5682 4.96326 67.7317 5.89112 68.7582 6.71105C69.7401 7.49393 70.6655 8.23331 72.5299 8.23331C74.3943 8.23331 75.3214 7.49393 76.3016 6.71105C77.3281 5.89273 78.4917 4.96326 80.7245 4.96326C82.9574 4.96326 84.1209 5.89112 85.1474 6.71105C86.1293 7.49393 87.0547 8.23331 88.9191 8.23331C90.7836 8.23331 91.7106 7.49393 92.6908 6.71105C93.7173 5.89273 94.8809 4.96326 97.1137 4.96326C99.3466 4.96326 100.51 5.89112 101.537 6.71105C102.519 7.49393 103.444 8.23331 105.308 8.23331C107.173 8.23331 108.1 7.49393 109.08 6.71105C110.107 5.89273 111.27 4.96326 113.503 4.96326C115.736 4.96326 116.899 5.89112 117.926 6.71105C118.908 7.49393 119.833 8.23331 121.698 8.23331C123.562 8.23331 124.489 7.49393 125.469 6.71105C126.496 5.89273 127.659 4.96326 129.892 4.96326C132.125 4.96326 133.289 5.89112 134.315 6.71105C135.297 7.49393 136.222 8.23331 138.087 8.23331C139.951 8.23331 140.878 7.49393 141.859 6.71105C142.885 5.89273 144.049 4.96326 146.281 4.96326C148.514 4.96326 149.678 5.89112 150.704 6.71105C151.686 7.49393 152.613 8.23331 154.476 8.23331C156.339 8.23331 157.268 7.49393 158.248 6.71105C159.274 5.89273 160.438 4.96326 162.671 4.96326C164.904 4.96326 166.067 5.89112 167.094 6.71105C168.075 7.49393 169.001 8.23331 170.865 8.23331C172.73 8.23331 173.657 7.49393 174.637 6.71105C175.663 5.89273 176.827 4.96326 179.06 4.96326C181.293 4.96326 182.456 5.89112 183.483 6.71105C184.465 7.49393 185.392 8.23331 187.254 8.23331C189.117 8.23331 190.046 7.49393 191.026 6.71105C192.053 5.89273 193.216 4.96326 195.449 4.96326C197.682 4.96326 198.845 5.89112 199.872 6.71105C200.854 7.49393 201.779 8.23331 203.644 8.23331C205.508 8.23331 206.435 7.49393 207.415 6.71105C208.442 5.89273 209.605 4.96326 211.838 4.96326C214.071 4.96326 215.235 5.89112 216.261 6.71105C217.243 7.49393 218.17 8.23331 220.033 8.23331C221.896 8.23331 222.824 7.49393 223.805 6.71105C224.831 5.89273 225.995 4.96326 228.227 4.96326C230.46 4.96326 231.624 5.89112 232.65 6.71105C233.632 7.49393 234.558 8.23331 236.422 8.23331C238.287 8.23331 239.214 7.49393 240.194 6.71105C241.22 5.89273 242.384 4.96326 244.617 4.96326C246.85 4.96326 248.013 5.89112 249.04 6.71105C250.022 7.49393 250.947 8.23331 252.811 8.23331C254.676 8.23331 255.603 7.49393 256.583 6.71105C257.609 5.89273 258.773 4.96326 261.006 4.96326C263.239 4.96326 264.402 5.89112 265.429 6.71105C266.411 7.49393 267.338 8.23331 269.201 8.23331C271.063 8.23331 271.992 7.49393 272.974 6.71105C274 5.89273 275.164 4.96326 277.397 4.96326C279.63 4.96326 280.793 5.89112 281.82 6.71105C282.802 7.49393 283.729 8.23331 285.591 8.23331C287.454 8.23331 288.383 7.49393 289.365 6.71105C290.391 5.89273 291.555 4.96326 293.788 4.96326C296.021 4.96326 297.184 5.89112 298.211 6.71105C299.193 7.49393 300.12 8.23331 301.982 8.23331C303.845 8.23331 304.774 7.49393 305.754 6.71105C306.781 5.89273 307.944 4.96326 310.177 4.96326C312.41 4.96326 313.573 5.89112 314.6 6.71105C315.582 7.49393 316.509 8.23331 318.373 8.23331C320.238 8.23331 321.165 7.49393 322.145 6.71105C323.172 5.89273 324.335 4.96326 326.568 4.96326C328.801 4.96326 329.966 5.89112 330.993 6.71105C331.974 7.49393 332.902 8.23331 334.766 8.23331C336.63 8.23331 337.557 7.49393 338.539 6.71105C339.566 5.89273 340.729 4.96326 342.964 4.96326V5.90883C341.1 5.90883 340.173 6.64822 339.191 7.4311C338.164 8.24942 337.001 9.17889 334.766 9.17889H334.802Z" fill="#282828" fill-opacity="0.5"/>
</g>
<g clip-path="url(#clip2_138_2178)">
<path d="M711.802 9.17889C709.567 9.17889 708.404 8.25103 707.377 7.4311C706.395 6.64822 705.468 5.90883 703.604 5.90883C701.74 5.90883 700.812 6.64822 699.831 7.4311C698.804 8.24942 697.64 9.17889 695.408 9.17889C693.175 9.17889 692.009 8.25103 690.983 7.4311C690.001 6.64822 689.074 5.90883 687.21 5.90883C685.345 5.90883 684.418 6.64822 683.438 7.4311C682.411 8.24942 681.248 9.17889 679.015 9.17889C676.782 9.17889 675.619 8.25103 674.592 7.4311C673.61 6.64822 672.683 5.90883 670.82 5.90883C668.958 5.90883 668.029 6.64822 667.047 7.4311C666.02 8.24942 664.857 9.17889 662.624 9.17889C660.391 9.17889 659.228 8.25103 658.201 7.4311C657.219 6.64822 656.294 5.90883 654.429 5.90883C652.565 5.90883 651.638 6.64822 650.656 7.4311C649.63 8.24942 648.466 9.17889 646.233 9.17889C644 9.17889 642.837 8.25103 641.81 7.4311C640.828 6.64822 639.901 5.90883 638.037 5.90883C636.172 5.90883 635.245 6.64822 634.265 7.4311C633.239 8.24942 632.075 9.17889 629.842 9.17889C627.609 9.17889 626.446 8.25103 625.419 7.4311C624.437 6.64822 623.512 5.90883 621.648 5.90883C619.783 5.90883 618.856 6.64822 617.876 7.4311C616.849 8.24942 615.686 9.17889 613.453 9.17889C611.22 9.17889 610.057 8.25103 609.03 7.4311C608.048 6.64822 607.123 5.90883 605.258 5.90883C603.394 5.90883 602.467 6.64822 601.487 7.4311C600.46 8.24942 599.297 9.17889 597.064 9.17889C594.831 9.17889 593.667 8.25103 592.641 7.4311C591.659 6.64822 590.732 5.90883 588.867 5.90883C587.003 5.90883 586.076 6.64822 585.096 7.4311C584.069 8.24942 582.906 9.17889 580.673 9.17889C578.44 9.17889 577.276 8.25103 576.25 7.4311C575.268 6.64822 574.343 5.90883 572.478 5.90883C570.614 5.90883 569.687 6.64822 568.706 7.4311C567.68 8.24942 566.516 9.17889 564.284 9.17889C562.051 9.17889 560.887 8.25103 559.861 7.4311C558.879 6.64822 557.953 5.90883 556.089 5.90883C554.225 5.90883 553.297 6.64822 552.317 7.4311C551.291 8.24942 550.127 9.17889 547.894 9.17889C545.661 9.17889 544.498 8.25103 543.471 7.4311C542.49 6.64822 541.564 5.90883 539.7 5.90883C537.835 5.90883 536.908 6.64822 535.928 7.4311C534.902 8.24942 533.738 9.17889 531.505 9.17889C529.272 9.17889 528.109 8.25103 527.082 7.4311C526.1 6.64822 525.175 5.90883 523.311 5.90883C521.446 5.90883 520.519 6.64822 519.539 7.4311C518.512 8.24942 517.349 9.17889 515.116 9.17889C512.883 9.17889 511.719 8.25103 510.693 7.4311C509.711 6.64822 508.786 5.90883 506.921 5.90883C505.057 5.90883 504.13 6.64822 503.15 7.4311C502.123 8.24942 500.96 9.17889 498.727 9.17889C496.494 9.17889 495.33 8.25103 494.304 7.4311C493.322 6.64822 492.397 5.90883 490.532 5.90883C488.668 5.90883 487.741 6.64822 486.76 7.4311C485.734 8.24942 484.57 9.17889 482.337 9.17889C480.105 9.17889 478.941 8.25103 477.915 7.4311C476.933 6.64822 476.007 5.90883 474.143 5.90883C472.278 5.90883 471.351 6.64822 470.371 7.4311C469.345 8.24942 468.181 9.17889 465.948 9.17889C463.715 9.17889 462.552 8.25103 461.525 7.4311C460.543 6.64822 459.618 5.90883 457.754 5.90883C455.889 5.90883 454.962 6.64822 453.982 7.4311C452.955 8.24942 451.792 9.17889 449.559 9.17889C447.326 9.17889 446.163 8.25103 445.136 7.4311C444.154 6.64822 443.229 5.90883 441.364 5.90883C439.5 5.90883 438.573 6.64822 437.593 7.4311C436.566 8.24942 435.403 9.17889 433.17 9.17889C430.937 9.17889 429.773 8.25103 428.747 7.4311C427.765 6.64822 426.84 5.90883 424.975 5.90883C423.111 5.90883 422.184 6.64822 421.204 7.4311C420.177 8.24942 419.013 9.17889 416.781 9.17889C414.548 9.17889 413.384 8.25103 412.358 7.4311C411.376 6.64822 410.45 5.90883 408.586 5.90883C406.722 5.90883 405.794 6.64822 404.814 7.4311C403.788 8.24942 402.624 9.17889 400.391 9.17889C398.159 9.17889 396.995 8.25103 395.969 7.4311C394.987 6.64822 394.061 5.90883 392.197 5.90883C390.332 5.90883 389.405 6.64822 388.425 7.4311C387.399 8.24942 386.235 9.17889 384.002 9.17889C381.769 9.17889 380.606 8.25103 379.579 7.4311C378.597 6.64822 377.672 5.90883 375.808 5.90883C373.943 5.90883 373.016 6.64822 372.036 7.4311C371.009 8.24942 369.846 9.17889 367.613 9.17889C365.38 9.17889 364.217 8.25103 363.19 7.4311C362.208 6.64822 361.283 5.90883 359.418 5.90883C357.554 5.90883 356.627 6.64822 355.647 7.4311C354.62 8.24942 353.457 9.17889 351.224 9.17889C348.991 9.17889 347.827 8.25103 346.801 7.4311C345.792 6.64822 344.864 5.90883 343 5.90883V4.96326C345.233 4.96326 346.396 5.89112 347.423 6.71105C348.405 7.49393 349.33 8.23331 351.195 8.23331C353.059 8.23331 353.986 7.49393 354.966 6.71105C355.993 5.89273 357.156 4.96326 359.389 4.96326C361.622 4.96326 362.786 5.89112 363.812 6.71105C364.794 7.49393 365.719 8.23331 367.584 8.23331C369.448 8.23331 370.375 7.49393 371.356 6.71105C372.382 5.89273 373.546 4.96326 375.778 4.96326C378.011 4.96326 379.175 5.89112 380.201 6.71105C381.183 7.49393 382.109 8.23331 383.973 8.23331C385.837 8.23331 386.765 7.49393 387.745 6.71105C388.771 5.89273 389.935 4.96326 392.168 4.96326C394.401 4.96326 395.564 5.89112 396.591 6.71105C397.572 7.49393 398.498 8.23331 400.362 8.23331C402.227 8.23331 403.154 7.49393 404.134 6.71105C405.16 5.89273 406.324 4.96326 408.557 4.96326C410.79 4.96326 411.953 5.89112 412.98 6.71105C413.962 7.49393 414.887 8.23331 416.751 8.23331C418.616 8.23331 419.543 7.49393 420.523 6.71105C421.55 5.89273 422.713 4.96326 424.946 4.96326C427.179 4.96326 428.343 5.89112 429.369 6.71105C430.351 7.49393 431.276 8.23331 433.141 8.23331C435.005 8.23331 435.932 7.49393 436.912 6.71105C437.939 5.89273 439.102 4.96326 441.335 4.96326C443.568 4.96326 444.732 5.89112 445.758 6.71105C446.74 7.49393 447.665 8.23331 449.53 8.23331C451.394 8.23331 452.321 7.49393 453.302 6.71105C454.328 5.89273 455.492 4.96326 457.725 4.96326C459.957 4.96326 461.121 5.89112 462.147 6.71105C463.129 7.49393 464.055 8.23331 465.919 8.23331C467.784 8.23331 468.711 7.49393 469.691 6.71105C470.717 5.89273 471.881 4.96326 474.114 4.96326C476.347 4.96326 477.51 5.89112 478.537 6.71105C479.519 7.49393 480.444 8.23331 482.308 8.23331C484.173 8.23331 485.1 7.49393 486.08 6.71105C487.107 5.89273 488.27 4.96326 490.503 4.96326C492.736 4.96326 493.899 5.89112 494.926 6.71105C495.908 7.49393 496.833 8.23331 498.698 8.23331C500.562 8.23331 501.489 7.49393 502.469 6.71105C503.496 5.89273 504.659 4.96326 506.892 4.96326C509.125 4.96326 510.289 5.89112 511.315 6.71105C512.297 7.49393 513.222 8.23331 515.087 8.23331C516.951 8.23331 517.878 7.49393 518.859 6.71105C519.885 5.89273 521.049 4.96326 523.281 4.96326C525.514 4.96326 526.678 5.89112 527.704 6.71105C528.686 7.49393 529.613 8.23331 531.476 8.23331C533.339 8.23331 534.268 7.49393 535.248 6.71105C536.274 5.89273 537.438 4.96326 539.671 4.96326C541.904 4.96326 543.067 5.89112 544.094 6.71105C545.075 7.49393 546.001 8.23331 547.865 8.23331C549.73 8.23331 550.657 7.49393 551.637 6.71105C552.663 5.89273 553.827 4.96326 556.06 4.96326C558.293 4.96326 559.456 5.89112 560.483 6.71105C561.465 7.49393 562.392 8.23331 564.254 8.23331C566.117 8.23331 567.046 7.49393 568.026 6.71105C569.053 5.89273 570.216 4.96326 572.449 4.96326C574.682 4.96326 575.845 5.89112 576.872 6.71105C577.854 7.49393 578.779 8.23331 580.644 8.23331C582.508 8.23331 583.435 7.49393 584.415 6.71105C585.442 5.89273 586.605 4.96326 588.838 4.96326C591.071 4.96326 592.235 5.89112 593.261 6.71105C594.243 7.49393 595.17 8.23331 597.033 8.23331C598.896 8.23331 599.824 7.49393 600.805 6.71105C601.831 5.89273 602.995 4.96326 605.227 4.96326C607.46 4.96326 608.624 5.89112 609.65 6.71105C610.632 7.49393 611.558 8.23331 613.422 8.23331C615.287 8.23331 616.214 7.49393 617.194 6.71105C618.22 5.89273 619.384 4.96326 621.617 4.96326C623.85 4.96326 625.013 5.89112 626.04 6.71105C627.022 7.49393 627.947 8.23331 629.811 8.23331C631.676 8.23331 632.603 7.49393 633.583 6.71105C634.609 5.89273 635.773 4.96326 638.006 4.96326C640.239 4.96326 641.402 5.89112 642.429 6.71105C643.411 7.49393 644.338 8.23331 646.201 8.23331C648.063 8.23331 648.992 7.49393 649.974 6.71105C651 5.89273 652.164 4.96326 654.397 4.96326C656.63 4.96326 657.793 5.89112 658.82 6.71105C659.802 7.49393 660.729 8.23331 662.591 8.23331C664.454 8.23331 665.383 7.49393 666.365 6.71105C667.391 5.89273 668.555 4.96326 670.788 4.96326C673.021 4.96326 674.184 5.89112 675.211 6.71105C676.193 7.49393 677.12 8.23331 678.982 8.23331C680.845 8.23331 681.774 7.49393 682.754 6.71105C683.781 5.89273 684.944 4.96326 687.177 4.96326C689.41 4.96326 690.573 5.89112 691.6 6.71105C692.582 7.49393 693.509 8.23331 695.373 8.23331C697.238 8.23331 698.165 7.49393 699.145 6.71105C700.172 5.89273 701.335 4.96326 703.568 4.96326C705.801 4.96326 706.966 5.89112 707.993 6.71105C708.974 7.49393 709.902 8.23331 711.766 8.23331C713.63 8.23331 714.557 7.49393 715.539 6.71105C716.566 5.89273 717.729 4.96326 719.964 4.96326V5.90883C718.1 5.90883 717.173 6.64822 716.191 7.4311C715.164 8.24942 714.001 9.17889 711.766 9.17889H711.802Z" fill="#282828" fill-opacity="0.5"/>
</g>
<g clip-path="url(#clip3_138_2178)">
<path d="M1088.8 9.21564C1086.57 9.21564 1085.4 8.28778 1084.38 7.46785C1083.4 6.68497 1082.47 5.94558 1080.6 5.94558C1078.74 5.94558 1077.81 6.68497 1076.83 7.46785C1075.8 8.28617 1074.64 9.21564 1072.41 9.21564C1070.17 9.21564 1069.01 8.28778 1067.98 7.46785C1067 6.68497 1066.07 5.94558 1064.21 5.94558C1062.35 5.94558 1061.42 6.68497 1060.44 7.46785C1059.41 8.28617 1058.25 9.21564 1056.01 9.21564C1053.78 9.21564 1052.62 8.28778 1051.59 7.46785C1050.61 6.68497 1049.68 5.94558 1047.82 5.94558C1045.96 5.94558 1045.03 6.68497 1044.05 7.46785C1043.02 8.28617 1041.86 9.21564 1039.62 9.21564C1037.39 9.21564 1036.23 8.28778 1035.2 7.46785C1034.22 6.68497 1033.29 5.94558 1031.43 5.94558C1029.56 5.94558 1028.64 6.68497 1027.66 7.46785C1026.63 8.28617 1025.47 9.21564 1023.23 9.21564C1021 9.21564 1019.84 8.28778 1018.81 7.46785C1017.83 6.68497 1016.9 5.94558 1015.04 5.94558C1013.17 5.94558 1012.25 6.68497 1011.27 7.46785C1010.24 8.28617 1009.08 9.21564 1006.84 9.21564C1004.61 9.21564 1003.45 8.28778 1002.42 7.46785C1001.44 6.68497 1000.51 5.94558 998.648 5.94558C996.783 5.94558 995.856 6.68497 994.876 7.46785C993.849 8.28617 992.686 9.21564 990.453 9.21564C988.22 9.21564 987.057 8.28778 986.03 7.46785C985.048 6.68497 984.123 5.94558 982.258 5.94558C980.394 5.94558 979.467 6.68497 978.487 7.46785C977.46 8.28617 976.297 9.21564 974.064 9.21564C971.831 9.21564 970.667 8.28778 969.641 7.46785C968.659 6.68497 967.732 5.94558 965.867 5.94558C964.003 5.94558 963.076 6.68497 962.096 7.46785C961.069 8.28617 959.906 9.21564 957.673 9.21564C955.44 9.21564 954.276 8.28778 953.25 7.46785C952.268 6.68497 951.343 5.94558 949.478 5.94558C947.614 5.94558 946.687 6.68497 945.706 7.46785C944.68 8.28617 943.516 9.21564 941.284 9.21564C939.051 9.21564 937.887 8.28778 936.861 7.46785C935.879 6.68497 934.953 5.94558 933.089 5.94558C931.225 5.94558 930.297 6.68497 929.317 7.46785C928.291 8.28617 927.127 9.21564 924.894 9.21564C922.661 9.21564 921.498 8.28778 920.471 7.46785C919.49 6.68497 918.564 5.94558 916.7 5.94558C914.835 5.94558 913.908 6.68497 912.928 7.46785C911.902 8.28617 910.738 9.21564 908.505 9.21564C906.272 9.21564 905.109 8.28778 904.082 7.46785C903.1 6.68497 902.175 5.94558 900.311 5.94558C898.446 5.94558 897.519 6.68497 896.539 7.46785C895.512 8.28617 894.349 9.21564 892.116 9.21564C889.883 9.21564 888.719 8.28778 887.693 7.46785C886.711 6.68497 885.786 5.94558 883.921 5.94558C882.057 5.94558 881.13 6.68497 880.15 7.46785C879.123 8.28617 877.96 9.21564 875.727 9.21564C873.494 9.21564 872.33 8.28778 871.304 7.46785C870.322 6.68497 869.397 5.94558 867.532 5.94558C865.668 5.94558 864.741 6.68497 863.76 7.46785C862.734 8.28617 861.57 9.21564 859.337 9.21564C857.105 9.21564 855.941 8.28778 854.915 7.46785C853.933 6.68497 853.007 5.94558 851.143 5.94558C849.278 5.94558 848.351 6.68497 847.371 7.46785C846.345 8.28617 845.181 9.21564 842.948 9.21564C840.715 9.21564 839.552 8.28778 838.525 7.46785C837.543 6.68497 836.618 5.94558 834.754 5.94558C832.889 5.94558 831.962 6.68497 830.982 7.46785C829.955 8.28617 828.792 9.21564 826.559 9.21564C824.326 9.21564 823.163 8.28778 822.136 7.46785C821.154 6.68497 820.229 5.94558 818.364 5.94558C816.5 5.94558 815.573 6.68497 814.593 7.46785C813.566 8.28617 812.403 9.21564 810.17 9.21564C807.937 9.21564 806.773 8.28778 805.747 7.46785C804.765 6.68497 803.84 5.94558 801.975 5.94558C800.111 5.94558 799.184 6.68497 798.204 7.46785C797.177 8.28617 796.013 9.21564 793.781 9.21564C791.548 9.21564 790.384 8.28778 789.358 7.46785C788.376 6.68497 787.45 5.94558 785.586 5.94558C783.722 5.94558 782.794 6.68497 781.814 7.46785C780.788 8.28617 779.624 9.21564 777.391 9.21564C775.159 9.21564 773.995 8.28778 772.969 7.46785C771.987 6.68497 771.061 5.94558 769.197 5.94558C767.332 5.94558 766.405 6.68497 765.425 7.46785C764.399 8.28617 763.235 9.21564 761.002 9.21564C758.769 9.21564 757.606 8.28778 756.579 7.46785C755.597 6.68497 754.672 5.94558 752.808 5.94558C750.943 5.94558 750.016 6.68497 749.036 7.46785C748.009 8.28617 746.846 9.21564 744.613 9.21564C742.38 9.21564 741.217 8.28778 740.19 7.46785C739.208 6.68497 738.283 5.94558 736.418 5.94558C734.554 5.94558 733.627 6.68497 732.647 7.46785C731.62 8.28617 730.457 9.21564 728.224 9.21564C725.991 9.21564 724.827 8.28778 723.801 7.46785C722.792 6.68497 721.864 5.94558 720 5.94558V5C722.233 5 723.396 5.92786 724.423 6.74779C725.405 7.53067 726.33 8.27006 728.195 8.27006C730.059 8.27006 730.986 7.53067 731.966 6.74779C732.993 5.92947 734.156 5 736.389 5C738.622 5 739.786 5.92786 740.812 6.74779C741.794 7.53067 742.719 8.27006 744.584 8.27006C746.448 8.27006 747.375 7.53067 748.356 6.74779C749.382 5.92947 750.546 5 752.778 5C755.011 5 756.175 5.92786 757.201 6.74779C758.183 7.53067 759.109 8.27006 760.973 8.27006C762.837 8.27006 763.765 7.53067 764.745 6.74779C765.771 5.92947 766.935 5 769.168 5C771.401 5 772.564 5.92786 773.591 6.74779C774.572 7.53067 775.498 8.27006 777.362 8.27006C779.227 8.27006 780.154 7.53067 781.134 6.74779C782.16 5.92947 783.324 5 785.557 5C787.79 5 788.953 5.92786 789.98 6.74779C790.962 7.53067 791.887 8.27006 793.751 8.27006C795.616 8.27006 796.543 7.53067 797.523 6.74779C798.55 5.92947 799.713 5 801.946 5C804.179 5 805.343 5.92786 806.369 6.74779C807.351 7.53067 808.276 8.27006 810.141 8.27006C812.005 8.27006 812.932 7.53067 813.912 6.74779C814.939 5.92947 816.102 5 818.335 5C820.568 5 821.732 5.92786 822.758 6.74779C823.74 7.53067 824.665 8.27006 826.53 8.27006C828.394 8.27006 829.321 7.53067 830.302 6.74779C831.328 5.92947 832.492 5 834.725 5C836.957 5 838.121 5.92786 839.147 6.74779C840.129 7.53067 841.055 8.27006 842.919 8.27006C844.784 8.27006 845.711 7.53067 846.691 6.74779C847.717 5.92947 848.881 5 851.114 5C853.347 5 854.51 5.92786 855.537 6.74779C856.519 7.53067 857.444 8.27006 859.308 8.27006C861.173 8.27006 862.1 7.53067 863.08 6.74779C864.107 5.92947 865.27 5 867.503 5C869.736 5 870.899 5.92786 871.926 6.74779C872.908 7.53067 873.833 8.27006 875.698 8.27006C877.562 8.27006 878.489 7.53067 879.469 6.74779C880.496 5.92947 881.659 5 883.892 5C886.125 5 887.289 5.92786 888.315 6.74779C889.297 7.53067 890.222 8.27006 892.087 8.27006C893.951 8.27006 894.878 7.53067 895.859 6.74779C896.885 5.92947 898.049 5 900.281 5C902.514 5 903.678 5.92786 904.704 6.74779C905.686 7.53067 906.613 8.27006 908.476 8.27006C910.339 8.27006 911.268 7.53067 912.248 6.74779C913.274 5.92947 914.438 5 916.671 5C918.904 5 920.067 5.92786 921.094 6.74779C922.075 7.53067 923.001 8.27006 924.865 8.27006C926.73 8.27006 927.657 7.53067 928.637 6.74779C929.663 5.92947 930.827 5 933.06 5C935.293 5 936.456 5.92786 937.483 6.74779C938.465 7.53067 939.392 8.27006 941.254 8.27006C943.117 8.27006 944.046 7.53067 945.026 6.74779C946.053 5.92947 947.216 5 949.449 5C951.682 5 952.845 5.92786 953.872 6.74779C954.854 7.53067 955.779 8.27006 957.644 8.27006C959.508 8.27006 960.435 7.53067 961.415 6.74779C962.442 5.92947 963.605 5 965.838 5C968.071 5 969.235 5.92786 970.261 6.74779C971.243 7.53067 972.17 8.27006 974.033 8.27006C975.896 8.27006 976.824 7.53067 977.805 6.74779C978.831 5.92947 979.995 5 982.227 5C984.46 5 985.624 5.92786 986.65 6.74779C987.632 7.53067 988.558 8.27006 990.422 8.27006C992.287 8.27006 993.214 7.53067 994.194 6.74779C995.22 5.92947 996.384 5 998.617 5C1000.85 5 1002.01 5.92786 1003.04 6.74779C1004.02 7.53067 1004.95 8.27006 1006.81 8.27006C1008.68 8.27006 1009.6 7.53067 1010.58 6.74779C1011.61 5.92947 1012.77 5 1015.01 5C1017.24 5 1018.4 5.92786 1019.43 6.74779C1020.41 7.53067 1021.34 8.27006 1023.2 8.27006C1025.06 8.27006 1025.99 7.53067 1026.97 6.74779C1028 5.92947 1029.16 5 1031.4 5C1033.63 5 1034.79 5.92786 1035.82 6.74779C1036.8 7.53067 1037.73 8.27006 1039.59 8.27006C1041.45 8.27006 1042.38 7.53067 1043.36 6.74779C1044.39 5.92947 1045.55 5 1047.79 5C1050.02 5 1051.18 5.92786 1052.21 6.74779C1053.19 7.53067 1054.12 8.27006 1055.98 8.27006C1057.85 8.27006 1058.77 7.53067 1059.75 6.74779C1060.78 5.92947 1061.94 5 1064.18 5C1066.41 5 1067.57 5.92786 1068.6 6.74779C1069.58 7.53067 1070.51 8.27006 1072.37 8.27006C1074.24 8.27006 1075.16 7.53067 1076.15 6.74779C1077.17 5.92947 1078.34 5 1080.57 5C1082.8 5 1083.97 5.92786 1084.99 6.74779C1085.97 7.53067 1086.9 8.27006 1088.77 8.27006C1090.63 8.27006 1091.56 7.53067 1092.54 6.74779C1093.57 5.92947 1094.73 5 1096.96 5V5.94558C1095.1 5.94558 1094.17 6.68497 1093.19 7.46785C1092.16 8.28617 1091 9.21564 1088.77 9.21564H1088.8Z" fill="#282828" fill-opacity="0.5"/>
</g>
<g clip-path="url(#clip4_138_2178)">
<path d="M1465.8 9.21564C1463.57 9.21564 1462.4 8.28778 1461.38 7.46785C1460.4 6.68497 1459.47 5.94558 1457.6 5.94558C1455.74 5.94558 1454.81 6.68497 1453.83 7.46785C1452.8 8.28617 1451.64 9.21564 1449.41 9.21564C1447.17 9.21564 1446.01 8.28778 1444.98 7.46785C1444 6.68497 1443.07 5.94558 1441.21 5.94558C1439.35 5.94558 1438.42 6.68497 1437.44 7.46785C1436.41 8.28617 1435.25 9.21564 1433.01 9.21564C1430.78 9.21564 1429.62 8.28778 1428.59 7.46785C1427.61 6.68497 1426.68 5.94558 1424.82 5.94558C1422.96 5.94558 1422.03 6.68497 1421.05 7.46785C1420.02 8.28617 1418.86 9.21564 1416.62 9.21564C1414.39 9.21564 1413.23 8.28778 1412.2 7.46785C1411.22 6.68497 1410.29 5.94558 1408.43 5.94558C1406.56 5.94558 1405.64 6.68497 1404.66 7.46785C1403.63 8.28617 1402.47 9.21564 1400.23 9.21564C1398 9.21564 1396.84 8.28778 1395.81 7.46785C1394.83 6.68497 1393.9 5.94558 1392.04 5.94558C1390.17 5.94558 1389.25 6.68497 1388.27 7.46785C1387.24 8.28617 1386.08 9.21564 1383.84 9.21564C1381.61 9.21564 1380.45 8.28778 1379.42 7.46785C1378.44 6.68497 1377.51 5.94558 1375.65 5.94558C1373.78 5.94558 1372.86 6.68497 1371.88 7.46785C1370.85 8.28617 1369.69 9.21564 1367.45 9.21564C1365.22 9.21564 1364.06 8.28778 1363.03 7.46785C1362.05 6.68497 1361.12 5.94558 1359.26 5.94558C1357.39 5.94558 1356.47 6.68497 1355.49 7.46785C1354.46 8.28617 1353.3 9.21564 1351.06 9.21564C1348.83 9.21564 1347.67 8.28778 1346.64 7.46785C1345.66 6.68497 1344.73 5.94558 1342.87 5.94558C1341 5.94558 1340.08 6.68497 1339.1 7.46785C1338.07 8.28617 1336.91 9.21564 1334.67 9.21564C1332.44 9.21564 1331.28 8.28778 1330.25 7.46785C1329.27 6.68497 1328.34 5.94558 1326.48 5.94558C1324.61 5.94558 1323.69 6.68497 1322.71 7.46785C1321.68 8.28617 1320.52 9.21564 1318.28 9.21564C1316.05 9.21564 1314.89 8.28778 1313.86 7.46785C1312.88 6.68497 1311.95 5.94558 1310.09 5.94558C1308.22 5.94558 1307.3 6.68497 1306.32 7.46785C1305.29 8.28617 1304.13 9.21564 1301.89 9.21564C1299.66 9.21564 1298.5 8.28778 1297.47 7.46785C1296.49 6.68497 1295.56 5.94558 1293.7 5.94558C1291.84 5.94558 1290.91 6.68497 1289.93 7.46785C1288.9 8.28617 1287.74 9.21564 1285.51 9.21564C1283.27 9.21564 1282.11 8.28778 1281.08 7.46785C1280.1 6.68497 1279.17 5.94558 1277.31 5.94558C1275.45 5.94558 1274.52 6.68497 1273.54 7.46785C1272.51 8.28617 1271.35 9.21564 1269.12 9.21564C1266.88 9.21564 1265.72 8.28778 1264.69 7.46785C1263.71 6.68497 1262.79 5.94558 1260.92 5.94558C1259.06 5.94558 1258.13 6.68497 1257.15 7.46785C1256.12 8.28617 1254.96 9.21564 1252.73 9.21564C1250.49 9.21564 1249.33 8.28778 1248.3 7.46785C1247.32 6.68497 1246.4 5.94558 1244.53 5.94558C1242.67 5.94558 1241.74 6.68497 1240.76 7.46785C1239.73 8.28617 1238.57 9.21564 1236.34 9.21564C1234.1 9.21564 1232.94 8.28778 1231.91 7.46785C1230.93 6.68497 1230.01 5.94558 1228.14 5.94558C1226.28 5.94558 1225.35 6.68497 1224.37 7.46785C1223.34 8.28617 1222.18 9.21564 1219.95 9.21564C1217.72 9.21564 1216.55 8.28778 1215.53 7.46785C1214.54 6.68497 1213.62 5.94558 1211.75 5.94558C1209.89 5.94558 1208.96 6.68497 1207.98 7.46785C1206.96 8.28617 1205.79 9.21564 1203.56 9.21564C1201.33 9.21564 1200.16 8.28778 1199.14 7.46785C1198.15 6.68497 1197.23 5.94558 1195.36 5.94558C1193.5 5.94558 1192.57 6.68497 1191.59 7.46785C1190.57 8.28617 1189.4 9.21564 1187.17 9.21564C1184.94 9.21564 1183.77 8.28778 1182.75 7.46785C1181.77 6.68497 1180.84 5.94558 1178.98 5.94558C1177.11 5.94558 1176.18 6.68497 1175.2 7.46785C1174.18 8.28617 1173.01 9.21564 1170.78 9.21564C1168.55 9.21564 1167.38 8.28778 1166.36 7.46785C1165.38 6.68497 1164.45 5.94558 1162.59 5.94558C1160.72 5.94558 1159.79 6.68497 1158.81 7.46785C1157.79 8.28617 1156.62 9.21564 1154.39 9.21564C1152.16 9.21564 1150.99 8.28778 1149.97 7.46785C1148.99 6.68497 1148.06 5.94558 1146.2 5.94558C1144.33 5.94558 1143.41 6.68497 1142.43 7.46785C1141.4 8.28617 1140.24 9.21564 1138 9.21564C1135.77 9.21564 1134.61 8.28778 1133.58 7.46785C1132.6 6.68497 1131.67 5.94558 1129.81 5.94558C1127.94 5.94558 1127.02 6.68497 1126.04 7.46785C1125.01 8.28617 1123.85 9.21564 1121.61 9.21564C1119.38 9.21564 1118.22 8.28778 1117.19 7.46785C1116.21 6.68497 1115.28 5.94558 1113.42 5.94558C1111.55 5.94558 1110.63 6.68497 1109.65 7.46785C1108.62 8.28617 1107.46 9.21564 1105.22 9.21564C1102.99 9.21564 1101.83 8.28778 1100.8 7.46785C1099.79 6.68497 1098.86 5.94558 1097 5.94558V5C1099.23 5 1100.4 5.92786 1101.42 6.74779C1102.4 7.53067 1103.33 8.27006 1105.19 8.27006C1107.06 8.27006 1107.99 7.53067 1108.97 6.74779C1109.99 5.92947 1111.16 5 1113.39 5C1115.62 5 1116.79 5.92786 1117.81 6.74779C1118.79 7.53067 1119.72 8.27006 1121.58 8.27006C1123.45 8.27006 1124.38 7.53067 1125.36 6.74779C1126.38 5.92947 1127.55 5 1129.78 5C1132.01 5 1133.17 5.92786 1134.2 6.74779C1135.18 7.53067 1136.11 8.27006 1137.97 8.27006C1139.84 8.27006 1140.76 7.53067 1141.74 6.74779C1142.77 5.92947 1143.93 5 1146.17 5C1148.4 5 1149.56 5.92786 1150.59 6.74779C1151.57 7.53067 1152.5 8.27006 1154.36 8.27006C1156.23 8.27006 1157.15 7.53067 1158.13 6.74779C1159.16 5.92947 1160.32 5 1162.56 5C1164.79 5 1165.95 5.92786 1166.98 6.74779C1167.96 7.53067 1168.89 8.27006 1170.75 8.27006C1172.62 8.27006 1173.54 7.53067 1174.52 6.74779C1175.55 5.92947 1176.71 5 1178.95 5C1181.18 5 1182.34 5.92786 1183.37 6.74779C1184.35 7.53067 1185.28 8.27006 1187.14 8.27006C1189.01 8.27006 1189.93 7.53067 1190.91 6.74779C1191.94 5.92947 1193.1 5 1195.34 5C1197.57 5 1198.73 5.92786 1199.76 6.74779C1200.74 7.53067 1201.67 8.27006 1203.53 8.27006C1205.39 8.27006 1206.32 7.53067 1207.3 6.74779C1208.33 5.92947 1209.49 5 1211.72 5C1213.96 5 1215.12 5.92786 1216.15 6.74779C1217.13 7.53067 1218.05 8.27006 1219.92 8.27006C1221.78 8.27006 1222.71 7.53067 1223.69 6.74779C1224.72 5.92947 1225.88 5 1228.11 5C1230.35 5 1231.51 5.92786 1232.54 6.74779C1233.52 7.53067 1234.44 8.27006 1236.31 8.27006C1238.17 8.27006 1239.1 7.53067 1240.08 6.74779C1241.11 5.92947 1242.27 5 1244.5 5C1246.74 5 1247.9 5.92786 1248.93 6.74779C1249.91 7.53067 1250.83 8.27006 1252.7 8.27006C1254.56 8.27006 1255.49 7.53067 1256.47 6.74779C1257.5 5.92947 1258.66 5 1260.89 5C1263.13 5 1264.29 5.92786 1265.32 6.74779C1266.3 7.53067 1267.22 8.27006 1269.09 8.27006C1270.95 8.27006 1271.88 7.53067 1272.86 6.74779C1273.88 5.92947 1275.05 5 1277.28 5C1279.51 5 1280.68 5.92786 1281.7 6.74779C1282.69 7.53067 1283.61 8.27006 1285.48 8.27006C1287.34 8.27006 1288.27 7.53067 1289.25 6.74779C1290.27 5.92947 1291.44 5 1293.67 5C1295.9 5 1297.07 5.92786 1298.09 6.74779C1299.08 7.53067 1300 8.27006 1301.87 8.27006C1303.73 8.27006 1304.66 7.53067 1305.64 6.74779C1306.66 5.92947 1307.83 5 1310.06 5C1312.29 5 1313.46 5.92786 1314.48 6.74779C1315.46 7.53067 1316.39 8.27006 1318.25 8.27006C1320.12 8.27006 1321.05 7.53067 1322.03 6.74779C1323.05 5.92947 1324.22 5 1326.45 5C1328.68 5 1329.85 5.92786 1330.87 6.74779C1331.85 7.53067 1332.78 8.27006 1334.64 8.27006C1336.51 8.27006 1337.44 7.53067 1338.42 6.74779C1339.44 5.92947 1340.61 5 1342.84 5C1345.07 5 1346.23 5.92786 1347.26 6.74779C1348.24 7.53067 1349.17 8.27006 1351.03 8.27006C1352.9 8.27006 1353.82 7.53067 1354.8 6.74779C1355.83 5.92947 1356.99 5 1359.23 5C1361.46 5 1362.62 5.92786 1363.65 6.74779C1364.63 7.53067 1365.56 8.27006 1367.42 8.27006C1369.29 8.27006 1370.21 7.53067 1371.19 6.74779C1372.22 5.92947 1373.38 5 1375.62 5C1377.85 5 1379.01 5.92786 1380.04 6.74779C1381.02 7.53067 1381.95 8.27006 1383.81 8.27006C1385.68 8.27006 1386.6 7.53067 1387.58 6.74779C1388.61 5.92947 1389.77 5 1392.01 5C1394.24 5 1395.4 5.92786 1396.43 6.74779C1397.41 7.53067 1398.34 8.27006 1400.2 8.27006C1402.06 8.27006 1402.99 7.53067 1403.97 6.74779C1405 5.92947 1406.16 5 1408.4 5C1410.63 5 1411.79 5.92786 1412.82 6.74779C1413.8 7.53067 1414.73 8.27006 1416.59 8.27006C1418.45 8.27006 1419.38 7.53067 1420.36 6.74779C1421.39 5.92947 1422.55 5 1424.79 5C1427.02 5 1428.18 5.92786 1429.21 6.74779C1430.19 7.53067 1431.12 8.27006 1432.98 8.27006C1434.85 8.27006 1435.77 7.53067 1436.75 6.74779C1437.78 5.92947 1438.94 5 1441.18 5C1443.41 5 1444.57 5.92786 1445.6 6.74779C1446.58 7.53067 1447.51 8.27006 1449.37 8.27006C1451.24 8.27006 1452.16 7.53067 1453.15 6.74779C1454.17 5.92947 1455.34 5 1457.57 5C1459.8 5 1460.97 5.92786 1461.99 6.74779C1462.97 7.53067 1463.9 8.27006 1465.77 8.27006C1467.63 8.27006 1468.56 7.53067 1469.54 6.74779C1470.57 5.92947 1471.73 5 1473.96 5V5.94558C1472.1 5.94558 1471.17 6.68497 1470.19 7.46785C1469.16 8.28617 1468 9.21564 1465.77 9.21564H1465.8Z" fill="#282828" fill-opacity="0.5"/>
</g>
</g>
<defs>
<clipPath id="clip0_138_2178">
<rect width="1440" height="30" fill="white"/>
</clipPath>
<clipPath id="clip1_138_2178">
<rect width="377" height="4.21564" fill="white" transform="translate(-34 4.96326)"/>
</clipPath>
<clipPath id="clip2_138_2178">
<rect width="377" height="4.21564" fill="white" transform="translate(343 4.96326)"/>
</clipPath>
<clipPath id="clip3_138_2178">
<rect width="377" height="4.21564" fill="white" transform="translate(720 5)"/>
</clipPath>
<clipPath id="clip4_138_2178">
<rect width="377" height="4.21564" fill="white" transform="translate(1097 5)"/>
</clipPath>
</defs>
</svg>
