<svg width="754" height="5" viewBox="0 0 754 5" fill="none" xmlns="http://www.w3.org/2000/svg">
<g clip-path="url(#clip0_138_2107)">
<path d="M368.802 4.21564C366.567 4.21564 365.404 3.28778 364.377 2.46785C363.395 1.68497 362.468 0.945578 360.604 0.945578C358.74 0.945578 357.812 1.68497 356.831 2.46785C355.804 3.28617 354.64 4.21564 352.408 4.21564C350.175 4.21564 349.009 3.28778 347.983 2.46785C347.001 1.68497 346.074 0.945578 344.21 0.945578C342.345 0.945578 341.418 1.68497 340.438 2.46785C339.411 3.28617 338.248 4.21564 336.015 4.21564C333.782 4.21564 332.619 3.28778 331.592 2.46785C330.61 1.68497 329.683 0.945578 327.82 0.945578C325.958 0.945578 325.029 1.68497 324.047 2.46785C323.02 3.28617 321.857 4.21564 319.624 4.21564C317.391 4.21564 316.228 3.28778 315.201 2.46785C314.219 1.68497 313.294 0.945578 311.429 0.945578C309.565 0.945578 308.638 1.68497 307.656 2.46785C306.63 3.28617 305.466 4.21564 303.233 4.21564C301 4.21564 299.837 3.28778 298.81 2.46785C297.828 1.68497 296.901 0.945578 295.037 0.945578C293.172 0.945578 292.245 1.68497 291.265 2.46785C290.239 3.28617 289.075 4.21564 286.842 4.21564C284.609 4.21564 283.446 3.28778 282.419 2.46785C281.437 1.68497 280.512 0.945578 278.648 0.945578C276.783 0.945578 275.856 1.68497 274.876 2.46785C273.849 3.28617 272.686 4.21564 270.453 4.21564C268.22 4.21564 267.057 3.28778 266.03 2.46785C265.048 1.68497 264.123 0.945578 262.258 0.945578C260.394 0.945578 259.467 1.68497 258.487 2.46785C257.46 3.28617 256.297 4.21564 254.064 4.21564C251.831 4.21564 250.667 3.28778 249.641 2.46785C248.659 1.68497 247.732 0.945578 245.867 0.945578C244.003 0.945578 243.076 1.68497 242.096 2.46785C241.069 3.28617 239.906 4.21564 237.673 4.21564C235.44 4.21564 234.276 3.28778 233.25 2.46785C232.268 1.68497 231.343 0.945578 229.478 0.945578C227.614 0.945578 226.687 1.68497 225.706 2.46785C224.68 3.28617 223.516 4.21564 221.284 4.21564C219.051 4.21564 217.887 3.28778 216.861 2.46785C215.879 1.68497 214.953 0.945578 213.089 0.945578C211.225 0.945578 210.297 1.68497 209.317 2.46785C208.291 3.28617 207.127 4.21564 204.894 4.21564C202.661 4.21564 201.498 3.28778 200.471 2.46785C199.49 1.68497 198.564 0.945578 196.7 0.945578C194.835 0.945578 193.908 1.68497 192.928 2.46785C191.902 3.28617 190.738 4.21564 188.505 4.21564C186.272 4.21564 185.109 3.28778 184.082 2.46785C183.1 1.68497 182.175 0.945578 180.311 0.945578C178.446 0.945578 177.519 1.68497 176.539 2.46785C175.512 3.28617 174.349 4.21564 172.116 4.21564C169.883 4.21564 168.719 3.28778 167.693 2.46785C166.711 1.68497 165.786 0.945578 163.921 0.945578C162.057 0.945578 161.13 1.68497 160.15 2.46785C159.123 3.28617 157.96 4.21564 155.727 4.21564C153.494 4.21564 152.33 3.28778 151.304 2.46785C150.322 1.68497 149.397 0.945578 147.532 0.945578C145.668 0.945578 144.741 1.68497 143.76 2.46785C142.734 3.28617 141.57 4.21564 139.337 4.21564C137.105 4.21564 135.941 3.28778 134.915 2.46785C133.933 1.68497 133.007 0.945578 131.143 0.945578C129.278 0.945578 128.351 1.68497 127.371 2.46785C126.345 3.28617 125.181 4.21564 122.948 4.21564C120.715 4.21564 119.552 3.28778 118.525 2.46785C117.543 1.68497 116.618 0.945578 114.754 0.945578C112.889 0.945578 111.962 1.68497 110.982 2.46785C109.955 3.28617 108.792 4.21564 106.559 4.21564C104.326 4.21564 103.163 3.28778 102.136 2.46785C101.154 1.68497 100.229 0.945578 98.3644 0.945578C96.5 0.945578 95.5729 1.68497 94.5927 2.46785C93.5663 3.28617 92.4027 4.21564 90.1698 4.21564C87.937 4.21564 86.7734 3.28778 85.7469 2.46785C84.765 1.68497 83.8397 0.945578 81.9752 0.945578C80.1108 0.945578 79.1837 1.68497 78.2035 2.46785C77.177 3.28617 76.0135 4.21564 73.7806 4.21564C71.5477 4.21564 70.3842 3.28778 69.3577 2.46785C68.3758 1.68497 67.4504 0.945578 65.586 0.945578C63.7216 0.945578 62.7945 1.68497 61.8143 2.46785C60.7878 3.28617 59.6243 4.21564 57.3914 4.21564C55.1585 4.21564 53.995 3.28778 52.9685 2.46785C51.9866 1.68497 51.0612 0.945578 49.1968 0.945578C47.3323 0.945578 46.4053 1.68497 45.4251 2.46785C44.3986 3.28617 43.235 4.21564 41.0022 4.21564C38.7693 4.21564 37.6058 3.28778 36.5793 2.46785C35.5974 1.68497 34.672 0.945578 32.8076 0.945578C30.9431 0.945578 30.0161 1.68497 29.0359 2.46785C28.0094 3.28617 26.8458 4.21564 24.613 4.21564C22.3801 4.21564 21.2165 3.28778 20.1901 2.46785C19.2082 1.68497 18.2828 0.945578 16.4184 0.945578C14.5539 0.945578 13.6268 1.68497 12.6466 2.46785C11.6202 3.28617 10.4566 4.21564 8.22374 4.21564C5.99087 4.21564 4.82731 3.28778 3.80085 2.46785C2.79151 1.68497 1.86444 0.945578 0 0.945578V0C2.23287 0 3.39643 0.927859 4.4229 1.74779C5.40481 2.53067 6.33017 3.27006 8.19461 3.27006C10.059 3.27006 10.9861 2.53067 11.9663 1.74779C12.9928 0.92947 14.1564 0 16.3892 0C18.6221 0 19.7856 0.927859 20.8121 1.74779C21.794 2.53067 22.7194 3.27006 24.5838 3.27006C26.4483 3.27006 27.3753 2.53067 28.3555 1.74779C29.382 0.92947 30.5456 0 32.7784 0C35.0113 0 36.1749 0.927859 37.2013 1.74779C38.1832 2.53067 39.1086 3.27006 40.973 3.27006C42.8375 3.27006 43.7646 2.53067 44.7448 1.74779C45.7712 0.92947 46.9348 0 49.1677 0C51.4005 0 52.5641 0.927859 53.5906 1.74779C54.5725 2.53067 55.4978 3.27006 57.3623 3.27006C59.2267 3.27006 60.1538 2.53067 61.134 1.74779C62.1604 0.92947 63.324 0 65.5569 0C67.7897 0 68.9533 0.927859 69.9798 1.74779C70.9617 2.53067 71.887 3.27006 73.7515 3.27006C75.6159 3.27006 76.543 2.53067 77.5232 1.74779C78.5497 0.92947 79.7132 0 81.9461 0C84.179 0 85.3425 0.927859 86.369 1.74779C87.3509 2.53067 88.2763 3.27006 90.1407 3.27006C92.0051 3.27006 92.9322 2.53067 93.9124 1.74779C94.9389 0.92947 96.1024 0 98.3353 0C100.568 0 101.732 0.927859 102.758 1.74779C103.74 2.53067 104.665 3.27006 106.53 3.27006C108.394 3.27006 109.321 2.53067 110.302 1.74779C111.328 0.92947 112.492 0 114.725 0C116.957 0 118.121 0.927859 119.147 1.74779C120.129 2.53067 121.055 3.27006 122.919 3.27006C124.784 3.27006 125.711 2.53067 126.691 1.74779C127.717 0.92947 128.881 0 131.114 0C133.347 0 134.51 0.927859 135.537 1.74779C136.519 2.53067 137.444 3.27006 139.308 3.27006C141.173 3.27006 142.1 2.53067 143.08 1.74779C144.107 0.92947 145.27 0 147.503 0C149.736 0 150.899 0.927859 151.926 1.74779C152.908 2.53067 153.833 3.27006 155.698 3.27006C157.562 3.27006 158.489 2.53067 159.469 1.74779C160.496 0.92947 161.659 0 163.892 0C166.125 0 167.289 0.927859 168.315 1.74779C169.297 2.53067 170.222 3.27006 172.087 3.27006C173.951 3.27006 174.878 2.53067 175.859 1.74779C176.885 0.92947 178.049 0 180.281 0C182.514 0 183.678 0.927859 184.704 1.74779C185.686 2.53067 186.613 3.27006 188.476 3.27006C190.339 3.27006 191.268 2.53067 192.248 1.74779C193.274 0.92947 194.438 0 196.671 0C198.904 0 200.067 0.927859 201.094 1.74779C202.075 2.53067 203.001 3.27006 204.865 3.27006C206.73 3.27006 207.657 2.53067 208.637 1.74779C209.663 0.92947 210.827 0 213.06 0C215.293 0 216.456 0.927859 217.483 1.74779C218.465 2.53067 219.392 3.27006 221.254 3.27006C223.117 3.27006 224.046 2.53067 225.026 1.74779C226.053 0.92947 227.216 0 229.449 0C231.682 0 232.845 0.927859 233.872 1.74779C234.854 2.53067 235.779 3.27006 237.644 3.27006C239.508 3.27006 240.435 2.53067 241.415 1.74779C242.442 0.92947 243.605 0 245.838 0C248.071 0 249.235 0.927859 250.261 1.74779C251.243 2.53067 252.17 3.27006 254.033 3.27006C255.896 3.27006 256.824 2.53067 257.805 1.74779C258.831 0.92947 259.995 0 262.227 0C264.46 0 265.624 0.927859 266.65 1.74779C267.632 2.53067 268.558 3.27006 270.422 3.27006C272.287 3.27006 273.214 2.53067 274.194 1.74779C275.22 0.92947 276.384 0 278.617 0C280.85 0 282.013 0.927859 283.04 1.74779C284.022 2.53067 284.947 3.27006 286.811 3.27006C288.676 3.27006 289.603 2.53067 290.583 1.74779C291.609 0.92947 292.773 0 295.006 0C297.239 0 298.402 0.927859 299.429 1.74779C300.411 2.53067 301.338 3.27006 303.201 3.27006C305.063 3.27006 305.992 2.53067 306.974 1.74779C308 0.92947 309.164 0 311.397 0C313.63 0 314.793 0.927859 315.82 1.74779C316.802 2.53067 317.729 3.27006 319.591 3.27006C321.454 3.27006 322.383 2.53067 323.365 1.74779C324.391 0.92947 325.555 0 327.788 0C330.021 0 331.184 0.927859 332.211 1.74779C333.193 2.53067 334.12 3.27006 335.982 3.27006C337.845 3.27006 338.774 2.53067 339.754 1.74779C340.781 0.92947 341.944 0 344.177 0C346.41 0 347.573 0.927859 348.6 1.74779C349.582 2.53067 350.509 3.27006 352.373 3.27006C354.238 3.27006 355.165 2.53067 356.145 1.74779C357.172 0.92947 358.335 0 360.568 0C362.801 0 363.966 0.927859 364.993 1.74779C365.974 2.53067 366.902 3.27006 368.766 3.27006C370.63 3.27006 371.557 2.53067 372.539 1.74779C373.566 0.92947 374.729 0 376.964 0V0.945578C375.1 0.945578 374.173 1.68497 373.191 2.46785C372.164 3.28617 371.001 4.21564 368.766 4.21564H368.802Z" fill="#282828"/>
</g>
<g clip-path="url(#clip1_138_2107)">
<path d="M745.802 4.21564C743.567 4.21564 742.404 3.28778 741.377 2.46785C740.395 1.68497 739.468 0.945578 737.604 0.945578C735.74 0.945578 734.812 1.68497 733.831 2.46785C732.804 3.28617 731.64 4.21564 729.408 4.21564C727.175 4.21564 726.009 3.28778 724.983 2.46785C724.001 1.68497 723.074 0.945578 721.21 0.945578C719.345 0.945578 718.418 1.68497 717.438 2.46785C716.411 3.28617 715.248 4.21564 713.015 4.21564C710.782 4.21564 709.619 3.28778 708.592 2.46785C707.61 1.68497 706.683 0.945578 704.82 0.945578C702.958 0.945578 702.029 1.68497 701.047 2.46785C700.02 3.28617 698.857 4.21564 696.624 4.21564C694.391 4.21564 693.228 3.28778 692.201 2.46785C691.219 1.68497 690.294 0.945578 688.429 0.945578C686.565 0.945578 685.638 1.68497 684.656 2.46785C683.63 3.28617 682.466 4.21564 680.233 4.21564C678 4.21564 676.837 3.28778 675.81 2.46785C674.828 1.68497 673.901 0.945578 672.037 0.945578C670.172 0.945578 669.245 1.68497 668.265 2.46785C667.239 3.28617 666.075 4.21564 663.842 4.21564C661.609 4.21564 660.446 3.28778 659.419 2.46785C658.437 1.68497 657.512 0.945578 655.648 0.945578C653.783 0.945578 652.856 1.68497 651.876 2.46785C650.849 3.28617 649.686 4.21564 647.453 4.21564C645.22 4.21564 644.057 3.28778 643.03 2.46785C642.048 1.68497 641.123 0.945578 639.258 0.945578C637.394 0.945578 636.467 1.68497 635.487 2.46785C634.46 3.28617 633.297 4.21564 631.064 4.21564C628.831 4.21564 627.667 3.28778 626.641 2.46785C625.659 1.68497 624.732 0.945578 622.867 0.945578C621.003 0.945578 620.076 1.68497 619.096 2.46785C618.069 3.28617 616.906 4.21564 614.673 4.21564C612.44 4.21564 611.276 3.28778 610.25 2.46785C609.268 1.68497 608.343 0.945578 606.478 0.945578C604.614 0.945578 603.687 1.68497 602.706 2.46785C601.68 3.28617 600.516 4.21564 598.284 4.21564C596.051 4.21564 594.887 3.28778 593.861 2.46785C592.879 1.68497 591.953 0.945578 590.089 0.945578C588.225 0.945578 587.297 1.68497 586.317 2.46785C585.291 3.28617 584.127 4.21564 581.894 4.21564C579.661 4.21564 578.498 3.28778 577.471 2.46785C576.49 1.68497 575.564 0.945578 573.7 0.945578C571.835 0.945578 570.908 1.68497 569.928 2.46785C568.902 3.28617 567.738 4.21564 565.505 4.21564C563.272 4.21564 562.109 3.28778 561.082 2.46785C560.1 1.68497 559.175 0.945578 557.311 0.945578C555.446 0.945578 554.519 1.68497 553.539 2.46785C552.512 3.28617 551.349 4.21564 549.116 4.21564C546.883 4.21564 545.719 3.28778 544.693 2.46785C543.711 1.68497 542.786 0.945578 540.921 0.945578C539.057 0.945578 538.13 1.68497 537.15 2.46785C536.123 3.28617 534.96 4.21564 532.727 4.21564C530.494 4.21564 529.33 3.28778 528.304 2.46785C527.322 1.68497 526.397 0.945578 524.532 0.945578C522.668 0.945578 521.741 1.68497 520.76 2.46785C519.734 3.28617 518.57 4.21564 516.337 4.21564C514.105 4.21564 512.941 3.28778 511.915 2.46785C510.933 1.68497 510.007 0.945578 508.143 0.945578C506.278 0.945578 505.351 1.68497 504.371 2.46785C503.345 3.28617 502.181 4.21564 499.948 4.21564C497.715 4.21564 496.552 3.28778 495.525 2.46785C494.543 1.68497 493.618 0.945578 491.754 0.945578C489.889 0.945578 488.962 1.68497 487.982 2.46785C486.955 3.28617 485.792 4.21564 483.559 4.21564C481.326 4.21564 480.163 3.28778 479.136 2.46785C478.154 1.68497 477.229 0.945578 475.364 0.945578C473.5 0.945578 472.573 1.68497 471.593 2.46785C470.566 3.28617 469.403 4.21564 467.17 4.21564C464.937 4.21564 463.773 3.28778 462.747 2.46785C461.765 1.68497 460.84 0.945578 458.975 0.945578C457.111 0.945578 456.184 1.68497 455.204 2.46785C454.177 3.28617 453.013 4.21564 450.781 4.21564C448.548 4.21564 447.384 3.28778 446.358 2.46785C445.376 1.68497 444.45 0.945578 442.586 0.945578C440.722 0.945578 439.794 1.68497 438.814 2.46785C437.788 3.28617 436.624 4.21564 434.391 4.21564C432.159 4.21564 430.995 3.28778 429.969 2.46785C428.987 1.68497 428.061 0.945578 426.197 0.945578C424.332 0.945578 423.405 1.68497 422.425 2.46785C421.399 3.28617 420.235 4.21564 418.002 4.21564C415.769 4.21564 414.606 3.28778 413.579 2.46785C412.597 1.68497 411.672 0.945578 409.808 0.945578C407.943 0.945578 407.016 1.68497 406.036 2.46785C405.009 3.28617 403.846 4.21564 401.613 4.21564C399.38 4.21564 398.217 3.28778 397.19 2.46785C396.208 1.68497 395.283 0.945578 393.418 0.945578C391.554 0.945578 390.627 1.68497 389.647 2.46785C388.62 3.28617 387.457 4.21564 385.224 4.21564C382.991 4.21564 381.827 3.28778 380.801 2.46785C379.792 1.68497 378.864 0.945578 377 0.945578V0C379.233 0 380.396 0.927859 381.423 1.74779C382.405 2.53067 383.33 3.27006 385.195 3.27006C387.059 3.27006 387.986 2.53067 388.966 1.74779C389.993 0.92947 391.156 0 393.389 0C395.622 0 396.786 0.927859 397.812 1.74779C398.794 2.53067 399.719 3.27006 401.584 3.27006C403.448 3.27006 404.375 2.53067 405.356 1.74779C406.382 0.92947 407.546 0 409.778 0C412.011 0 413.175 0.927859 414.201 1.74779C415.183 2.53067 416.109 3.27006 417.973 3.27006C419.837 3.27006 420.765 2.53067 421.745 1.74779C422.771 0.92947 423.935 0 426.168 0C428.401 0 429.564 0.927859 430.591 1.74779C431.572 2.53067 432.498 3.27006 434.362 3.27006C436.227 3.27006 437.154 2.53067 438.134 1.74779C439.16 0.92947 440.324 0 442.557 0C444.79 0 445.953 0.927859 446.98 1.74779C447.962 2.53067 448.887 3.27006 450.751 3.27006C452.616 3.27006 453.543 2.53067 454.523 1.74779C455.55 0.92947 456.713 0 458.946 0C461.179 0 462.343 0.927859 463.369 1.74779C464.351 2.53067 465.276 3.27006 467.141 3.27006C469.005 3.27006 469.932 2.53067 470.912 1.74779C471.939 0.92947 473.102 0 475.335 0C477.568 0 478.732 0.927859 479.758 1.74779C480.74 2.53067 481.665 3.27006 483.53 3.27006C485.394 3.27006 486.321 2.53067 487.302 1.74779C488.328 0.92947 489.492 0 491.725 0C493.957 0 495.121 0.927859 496.147 1.74779C497.129 2.53067 498.055 3.27006 499.919 3.27006C501.784 3.27006 502.711 2.53067 503.691 1.74779C504.717 0.92947 505.881 0 508.114 0C510.347 0 511.51 0.927859 512.537 1.74779C513.519 2.53067 514.444 3.27006 516.308 3.27006C518.173 3.27006 519.1 2.53067 520.08 1.74779C521.107 0.92947 522.27 0 524.503 0C526.736 0 527.899 0.927859 528.926 1.74779C529.908 2.53067 530.833 3.27006 532.698 3.27006C534.562 3.27006 535.489 2.53067 536.469 1.74779C537.496 0.92947 538.659 0 540.892 0C543.125 0 544.289 0.927859 545.315 1.74779C546.297 2.53067 547.222 3.27006 549.087 3.27006C550.951 3.27006 551.878 2.53067 552.859 1.74779C553.885 0.92947 555.049 0 557.281 0C559.514 0 560.678 0.927859 561.704 1.74779C562.686 2.53067 563.613 3.27006 565.476 3.27006C567.339 3.27006 568.268 2.53067 569.248 1.74779C570.274 0.92947 571.438 0 573.671 0C575.904 0 577.067 0.927859 578.094 1.74779C579.075 2.53067 580.001 3.27006 581.865 3.27006C583.73 3.27006 584.657 2.53067 585.637 1.74779C586.663 0.92947 587.827 0 590.06 0C592.293 0 593.456 0.927859 594.483 1.74779C595.465 2.53067 596.392 3.27006 598.254 3.27006C600.117 3.27006 601.046 2.53067 602.026 1.74779C603.053 0.92947 604.216 0 606.449 0C608.682 0 609.845 0.927859 610.872 1.74779C611.854 2.53067 612.779 3.27006 614.644 3.27006C616.508 3.27006 617.435 2.53067 618.415 1.74779C619.442 0.92947 620.605 0 622.838 0C625.071 0 626.235 0.927859 627.261 1.74779C628.243 2.53067 629.17 3.27006 631.033 3.27006C632.896 3.27006 633.824 2.53067 634.805 1.74779C635.831 0.92947 636.995 0 639.227 0C641.46 0 642.624 0.927859 643.65 1.74779C644.632 2.53067 645.558 3.27006 647.422 3.27006C649.287 3.27006 650.214 2.53067 651.194 1.74779C652.22 0.92947 653.384 0 655.617 0C657.85 0 659.013 0.927859 660.04 1.74779C661.022 2.53067 661.947 3.27006 663.811 3.27006C665.676 3.27006 666.603 2.53067 667.583 1.74779C668.609 0.92947 669.773 0 672.006 0C674.239 0 675.402 0.927859 676.429 1.74779C677.411 2.53067 678.338 3.27006 680.201 3.27006C682.063 3.27006 682.992 2.53067 683.974 1.74779C685 0.92947 686.164 0 688.397 0C690.63 0 691.793 0.927859 692.82 1.74779C693.802 2.53067 694.729 3.27006 696.591 3.27006C698.454 3.27006 699.383 2.53067 700.365 1.74779C701.391 0.92947 702.555 0 704.788 0C707.021 0 708.184 0.927859 709.211 1.74779C710.193 2.53067 711.12 3.27006 712.982 3.27006C714.845 3.27006 715.774 2.53067 716.754 1.74779C717.781 0.92947 718.944 0 721.177 0C723.41 0 724.573 0.927859 725.6 1.74779C726.582 2.53067 727.509 3.27006 729.373 3.27006C731.238 3.27006 732.165 2.53067 733.145 1.74779C734.172 0.92947 735.335 0 737.568 0C739.801 0 740.966 0.927859 741.993 1.74779C742.974 2.53067 743.902 3.27006 745.766 3.27006C747.63 3.27006 748.557 2.53067 749.539 1.74779C750.566 0.92947 751.729 0 753.964 0V0.945578C752.1 0.945578 751.173 1.68497 750.191 2.46785C749.164 3.28617 748.001 4.21564 745.766 4.21564H745.802Z" fill="#282828"/>
</g>
<defs>
<clipPath id="clip0_138_2107">
<rect width="377" height="4.21564" fill="white"/>
</clipPath>
<clipPath id="clip1_138_2107">
<rect width="377" height="4.21564" fill="white" transform="translate(377)"/>
</clipPath>
</defs>
</svg>
